<?xml version="1.0" encoding="UTF-8"?>
<svg version="1.1" xmlns="http://www.w3.org/2000/svg" width="1024" height="1024">
<path d="M0 0 C337.92 0 675.84 0 1024 0 C1024 337.92 1024 675.84 1024 1024 C686.08 1024 348.16 1024 0 1024 C0 686.08 0 348.16 0 0 Z " fill="#F9F4E9" transform="translate(0,0)"/>
<path d="M0 0 C1.18553467 0.24943359 1.18553467 0.24943359 2.39501953 0.50390625 C25.70165018 5.57976047 46.62863713 15.85668022 65 31 C65.87398437 31.71929687 66.74796875 32.43859375 67.6484375 33.1796875 C83.4753994 46.80984712 98.74239895 67.40220007 103.73095703 88.02124023 C105.4068164 91.95489936 107.10805506 92.62755558 110.93359375 94.4375 C111.5261647 94.7255249 112.11873566 95.0135498 112.72926331 95.31030273 C114.62342602 96.22623189 116.52932513 97.11369059 118.4375 98 C120.30364373 98.88907848 122.16696667 99.78389088 124.03030396 100.67883301 C125.25509881 101.26679302 126.48074504 101.85298288 127.70724487 102.43737793 C147.74693144 112.01912234 147.74693144 112.01912234 154 120.8125 C155.83739888 126.66920894 156.01848774 132.43881435 153.5 138.125 C148.78555781 146.28461148 141.8166564 151.87882981 133 155 C119.20769881 158.40847515 105.54597818 158.24247586 91.42248535 157.99588013 C60.72305849 157.50786281 32.96110993 160.25151497 3.32128906 168.42089844 C1 169 1 169 -1 169 C-0.86722656 169.58007812 -0.73445313 170.16015625 -0.59765625 170.7578125 C-0.42105469 171.53898438 -0.24445313 172.32015625 -0.0625 173.125 C0.11152344 173.89070312 0.28554688 174.65640625 0.46484375 175.4453125 C0.64144531 176.28835938 0.81804687 177.13140625 1 178 C1.18046875 178.86109375 1.3609375 179.7221875 1.546875 180.609375 C4.75001297 204.57768323 0.96949766 229.9533639 -12.9375 250.0625 C-17.23925215 255.59808804 -22.79851519 262.52277235 -30 264 C-36.12862809 263.683002 -36.12862809 263.683002 -38.65112305 261.70581055 C-40.23246023 259.70602721 -40.56163032 258.40004487 -40.95703125 255.89453125 C-41.16658447 254.67805908 -41.16658447 254.67805908 -41.38037109 253.43701172 C-41.52297363 252.57092285 -41.66557617 251.70483398 -41.8125 250.8125 C-45.09280382 232.88902356 -51.4452941 216.74142355 -65 204 C-65.66 204 -66.32 204 -67 204 C-68.16196392 205.49925731 -68.16196392 205.49925731 -69.25 207.48046875 C-69.90742187 208.59881104 -69.90742187 208.59881104 -70.578125 209.73974609 C-71.04734375 210.54750488 -71.5165625 211.35526367 -72 212.1875 C-87.87645491 238.78578449 -110.00599415 262.423261 -139.5625 273.3125 C-145.65964596 274.53192919 -150.83789358 275.08105321 -156.5 272.25 C-159.74525275 269.32927253 -160.83142488 267.74369888 -161.25 263.4140625 C-160.92069909 258.91704698 -159.37841584 255.36913563 -157.625 251.25 C-154.93063839 244.89744012 -153.13490048 238.81655189 -152 232 C-186.42587011 251.77885361 -220.32470913 275.27869821 -246 306 C-246.42265137 306.50354004 -246.84530273 307.00708008 -247.28076172 307.52587891 C-258.09143059 320.48137244 -267.61048785 334.35514984 -276 349 C-275.33355469 349.22558594 -274.66710937 349.45117188 -273.98046875 349.68359375 C-270.1042744 351.39562192 -266.78707959 353.65320089 -263.3125 356.0625 C-262.24902344 356.79786987 -262.24902344 356.79786987 -261.1640625 357.5480957 C-255.36187382 361.62429178 -250.09333867 366.06323774 -245 371 C-244.31808594 371.6084375 -243.63617188 372.216875 -242.93359375 372.84375 C-229.41374198 385.33175399 -219.88585704 405.10834861 -218.61328125 423.41015625 C-218.23080268 434.06390138 -218.23080268 434.06390138 -220.65625 437.015625 C-223.94059807 438.39505119 -225.59614922 438.0295598 -229 437 C-231.30593279 435.62369871 -233.44354122 434.23316136 -235.625 432.6875 C-246.78722384 425.22889146 -257.63097632 423.42239595 -270.75585938 422.20898438 C-279.45403873 421.39897115 -287.31636294 420.63264451 -295.21875 416.7109375 C-297.09402172 415.79097241 -297.09402172 415.79097241 -299.625 416.375 C-302.19378092 418.0509561 -302.19378092 418.0509561 -304.9375 420.6875 C-311.33201446 426.35474136 -319.65147724 429.59442024 -327.453125 432.90625 C-344.10381494 439.99116018 -357.85504052 449.36597369 -369.625 463.37109375 C-372.65662969 466.96254142 -372.65662969 466.96254142 -376.4375 467.375 C-380 467 -380 467 -381.6484375 465.28515625 C-388.67793831 453.4000176 -386.20666663 432.00686585 -382.90673828 419.11376953 C-375.4666963 392.91459404 -357.63895851 371.60425259 -336.47265625 355.03515625 C-335.65667969 354.36355469 -334.84070313 353.69195313 -334 353 C-333.12053711 352.29713867 -332.24107422 351.59427734 -331.33496094 350.87011719 C-328.76367885 347.70951574 -328.55186468 346.2555899 -328.90046692 342.26472473 C-328.98874252 341.53154526 -329.07701813 340.79836578 -329.16796875 340.04296875 C-329.30954384 338.42273903 -329.44655878 336.80210595 -329.57958984 335.18115234 C-329.69122467 333.90881744 -329.69122467 333.90881744 -329.80511475 332.61077881 C-330.13141092 328.23955456 -330.19112792 323.87015115 -330.23828125 319.48828125 C-330.25329681 318.13878387 -330.25329681 318.13878387 -330.26861572 316.76202393 C-330.84626003 249.70653181 -312.93898111 186.29778036 -276.97363281 129.43115234 C-266.8658038 113.2459705 -264.20942939 95.86703704 -266 77 C-267.04354887 72.49969549 -268.56576217 68.91216795 -271 65 C-271.4846875 64.20851563 -271.969375 63.41703125 -272.46875 62.6015625 C-279.35344527 52.71325017 -289.66529954 46.73961833 -300.39233398 41.82592773 C-305.68831642 39.36254085 -310.9026708 36.71444593 -313.1875 31.0625 C-312.93302619 26.9060944 -310.90505483 24.77140492 -308 22 C-305.58375429 20.46980481 -303.37286095 19.20953454 -300.8125 18 C-300.12269043 17.66532715 -299.43288086 17.3306543 -298.72216797 16.98583984 C-287.8399519 11.86780903 -275.95172048 7.62881854 -264 6 C-263.22011719 5.89042969 -262.44023437 5.78085938 -261.63671875 5.66796875 C-234.03189864 2.36595678 -207.85938729 10.5690856 -181.875 18.81640625 C-180.73804688 19.17621582 -179.60109375 19.53602539 -178.4296875 19.90673828 C-176.09822387 20.64992551 -173.77018165 21.40391424 -171.4453125 22.16748047 C-170.30835938 22.53373535 -169.17140625 22.89999023 -168 23.27734375 C-166.4840625 23.77415649 -166.4840625 23.77415649 -164.9375 24.28100586 C-160.11930764 25.46032571 -156.26998653 25.47488109 -151.76953125 23.34765625 C-150.9808667 22.98776611 -150.19220215 22.62787598 -149.37963867 22.25708008 C-148.53248291 21.86286865 -147.68532715 21.46865723 -146.8125 21.0625 C-101.96070373 1.09251557 -48.8343239 -10.54530777 0 0 Z " fill="#25C5BB" transform="translate(632,164)"/>
<path d="M0 0 C1.18553467 0.24943359 1.18553467 0.24943359 2.39501953 0.50390625 C25.70165018 5.57976047 46.62863713 15.85668022 65 31 C65.87398437 31.71929687 66.74796875 32.43859375 67.6484375 33.1796875 C83.4753994 46.80984712 98.74239895 67.40220007 103.73095703 88.02124023 C105.4068164 91.95489936 107.10805506 92.62755558 110.93359375 94.4375 C111.5261647 94.7255249 112.11873566 95.0135498 112.72926331 95.31030273 C114.62342602 96.22623189 116.52932513 97.11369059 118.4375 98 C120.30364373 98.88907848 122.16696667 99.78389088 124.03030396 100.67883301 C125.25509881 101.26679302 126.48074504 101.85298288 127.70724487 102.43737793 C147.74693144 112.01912234 147.74693144 112.01912234 154 120.8125 C155.83739888 126.66920894 156.01848774 132.43881435 153.5 138.125 C148.78555781 146.28461148 141.8166564 151.87882981 133 155 C119.20769881 158.40847515 105.54597818 158.24247586 91.42248535 157.99588013 C60.72305849 157.50786281 32.96110993 160.25151497 3.32128906 168.42089844 C1 169 1 169 -1 169 C-0.86722656 169.58007812 -0.73445313 170.16015625 -0.59765625 170.7578125 C-0.42105469 171.53898438 -0.24445313 172.32015625 -0.0625 173.125 C0.11152344 173.89070312 0.28554688 174.65640625 0.46484375 175.4453125 C0.64144531 176.28835938 0.81804687 177.13140625 1 178 C1.18046875 178.86109375 1.3609375 179.7221875 1.546875 180.609375 C4.75001297 204.57768323 0.96949766 229.9533639 -12.9375 250.0625 C-17.23925215 255.59808804 -22.79851519 262.52277235 -30 264 C-36.12862809 263.683002 -36.12862809 263.683002 -38.65112305 261.70581055 C-40.23246023 259.70602721 -40.56163032 258.40004487 -40.95703125 255.89453125 C-41.16658447 254.67805908 -41.16658447 254.67805908 -41.38037109 253.43701172 C-41.52297363 252.57092285 -41.66557617 251.70483398 -41.8125 250.8125 C-45.09280382 232.88902356 -51.4452941 216.74142355 -65 204 C-65.66 204 -66.32 204 -67 204 C-68.16196392 205.49925731 -68.16196392 205.49925731 -69.25 207.48046875 C-69.90742187 208.59881104 -69.90742187 208.59881104 -70.578125 209.73974609 C-71.04734375 210.54750488 -71.5165625 211.35526367 -72 212.1875 C-87.87645491 238.78578449 -110.00599415 262.423261 -139.5625 273.3125 C-145.65964596 274.53192919 -150.83789358 275.08105321 -156.5 272.25 C-159.74525275 269.32927253 -160.83142488 267.74369888 -161.25 263.4140625 C-160.92069909 258.91704698 -159.37841584 255.36913563 -157.625 251.25 C-154.93063839 244.89744012 -153.13490048 238.81655189 -152 232 C-186.42587011 251.77885361 -220.32470913 275.27869821 -246 306 C-246.42265137 306.50354004 -246.84530273 307.00708008 -247.28076172 307.52587891 C-258.09143059 320.48137244 -267.61048785 334.35514984 -276 349 C-275.33355469 349.22558594 -274.66710937 349.45117188 -273.98046875 349.68359375 C-270.1042744 351.39562192 -266.78707959 353.65320089 -263.3125 356.0625 C-262.24902344 356.79786987 -262.24902344 356.79786987 -261.1640625 357.5480957 C-255.36187382 361.62429178 -250.09333867 366.06323774 -245 371 C-244.31808594 371.6084375 -243.63617188 372.216875 -242.93359375 372.84375 C-229.41374198 385.33175399 -219.88585704 405.10834861 -218.61328125 423.41015625 C-218.23080268 434.06390138 -218.23080268 434.06390138 -220.65625 437.015625 C-223.94059807 438.39505119 -225.59614922 438.0295598 -229 437 C-231.30593279 435.62369871 -233.44354122 434.23316136 -235.625 432.6875 C-246.78722384 425.22889146 -257.63097632 423.42239595 -270.75585938 422.20898438 C-279.45403873 421.39897115 -287.31636294 420.63264451 -295.21875 416.7109375 C-297.09402172 415.79097241 -297.09402172 415.79097241 -299.625 416.375 C-302.19378092 418.0509561 -302.19378092 418.0509561 -304.9375 420.6875 C-311.33201446 426.35474136 -319.65147724 429.59442024 -327.453125 432.90625 C-344.10381494 439.99116018 -357.85504052 449.36597369 -369.625 463.37109375 C-372.65662969 466.96254142 -372.65662969 466.96254142 -376.4375 467.375 C-380 467 -380 467 -381.6484375 465.28515625 C-388.67793831 453.4000176 -386.20666663 432.00686585 -382.90673828 419.11376953 C-375.4666963 392.91459404 -357.63895851 371.60425259 -336.47265625 355.03515625 C-335.65667969 354.36355469 -334.84070313 353.69195313 -334 353 C-333.12053711 352.29713867 -332.24107422 351.59427734 -331.33496094 350.87011719 C-328.76367885 347.70951574 -328.55186468 346.2555899 -328.90046692 342.26472473 C-328.98874252 341.53154526 -329.07701813 340.79836578 -329.16796875 340.04296875 C-329.30954384 338.42273903 -329.44655878 336.80210595 -329.57958984 335.18115234 C-329.69122467 333.90881744 -329.69122467 333.90881744 -329.80511475 332.61077881 C-330.13141092 328.23955456 -330.19112792 323.87015115 -330.23828125 319.48828125 C-330.25329681 318.13878387 -330.25329681 318.13878387 -330.26861572 316.76202393 C-330.84626003 249.70653181 -312.93898111 186.29778036 -276.97363281 129.43115234 C-266.8658038 113.2459705 -264.20942939 95.86703704 -266 77 C-267.04354887 72.49969549 -268.56576217 68.91216795 -271 65 C-271.4846875 64.20851563 -271.969375 63.41703125 -272.46875 62.6015625 C-279.35344527 52.71325017 -289.66529954 46.73961833 -300.39233398 41.82592773 C-305.68831642 39.36254085 -310.9026708 36.71444593 -313.1875 31.0625 C-312.93302619 26.9060944 -310.90505483 24.77140492 -308 22 C-305.58375429 20.46980481 -303.37286095 19.20953454 -300.8125 18 C-300.12269043 17.66532715 -299.43288086 17.3306543 -298.72216797 16.98583984 C-287.8399519 11.86780903 -275.95172048 7.62881854 -264 6 C-263.22011719 5.89042969 -262.44023437 5.78085938 -261.63671875 5.66796875 C-234.03189864 2.36595678 -207.85938729 10.5690856 -181.875 18.81640625 C-180.73804688 19.17621582 -179.60109375 19.53602539 -178.4296875 19.90673828 C-176.09822387 20.64992551 -173.77018165 21.40391424 -171.4453125 22.16748047 C-170.30835938 22.53373535 -169.17140625 22.89999023 -168 23.27734375 C-166.4840625 23.77415649 -166.4840625 23.77415649 -164.9375 24.28100586 C-160.11930764 25.46032571 -156.26998653 25.47488109 -151.76953125 23.34765625 C-150.9808667 22.98776611 -150.19220215 22.62787598 -149.37963867 22.25708008 C-148.53248291 21.86286865 -147.68532715 21.46865723 -146.8125 21.0625 C-101.96070373 1.09251557 -48.8343239 -10.54530777 0 0 Z M-185 56 C-185.969375 56.69609375 -186.93875 57.3921875 -187.9375 58.109375 C-199.2078362 66.38602815 -209.67415595 75.5866724 -220 85 C-220.94488281 85.84046875 -221.88976562 86.6809375 -222.86328125 87.546875 C-234.5372775 97.97928139 -244.77533565 109.34804462 -254 122 C-254.46374023 122.63389648 -254.92748047 123.26779297 -255.40527344 123.92089844 C-276.92263815 153.48751114 -295.01018508 184.99540432 -306 220 C-306.27682617 220.87333984 -306.55365234 221.74667969 -306.83886719 222.64648438 C-310.0451922 232.89589486 -312.60451193 243.22807231 -314.75 253.75 C-314.94875732 254.71856934 -315.14751465 255.68713867 -315.35229492 256.68505859 C-318.49425574 272.8163945 -319.30017465 288.47961536 -319.20581055 304.88793945 C-319.18731803 308.22029126 -319.18530319 311.55236733 -319.18554688 314.88476562 C-319.1806383 317.02083573 -319.17481289 319.15690397 -319.16796875 321.29296875 C-319.16685593 322.2804863 -319.1657431 323.26800385 -319.16459656 324.28544617 C-319.13225687 328.97781465 -318.91449612 333.37992154 -318 338 C-317.01346696 351.19135609 -317.01346696 351.19135609 -319.875 356.4375 C-321.26171875 357.6953125 -321.26171875 357.6953125 -323 359 C-323.72832031 359.59554688 -324.45664062 360.19109375 -325.20703125 360.8046875 C-326.89338006 362.16970055 -328.59323374 363.51816122 -330.3046875 364.8515625 C-336.53581081 369.81839992 -342.50728214 375.2256043 -348 381 C-348.67675781 381.70511719 -349.35351562 382.41023438 -350.05078125 383.13671875 C-367.49228564 401.80938815 -374.38852713 422.87524573 -374 448 C-373.34 448 -372.68 448 -372 448 C-371.43796875 447.28457031 -370.8759375 446.56914063 -370.296875 445.83203125 C-367.60151389 442.50866933 -364.69149771 440.19304985 -361.25 437.6875 C-360.26580078 436.97074097 -360.26580078 436.97074097 -359.26171875 436.23950195 C-349.94265651 429.63813113 -339.81187952 425.01659975 -329.1875 420.9375 C-316.71665965 416.06217674 -308.89410238 409.5959529 -301 399 C-297.8125 399.125 -297.8125 399.125 -294 400 C-292.77009167 401.45647039 -291.54499901 402.91986764 -290.40600586 404.44848633 C-285.42580757 409.94408628 -277.62455188 410.49257942 -270.67358398 410.85888672 C-269.56442627 410.9054541 -268.45526855 410.95202148 -267.3125 411 C-254.13177706 411.78418244 -242.91481894 414.07411121 -231 420 C-231.99960344 402.67354043 -243.48210202 387.98365851 -255.64453125 376.50390625 C-263.7222472 369.42071074 -272.6454997 364.20925965 -282 359 C-285.81997522 363.21718504 -287.71136225 367.59341237 -289.75 372.8125 C-290.06582031 373.60076172 -290.38164062 374.38902344 -290.70703125 375.20117188 C-291.47899311 377.13107652 -292.24055966 379.06513375 -293 381 C-296.31202826 340.88765774 -265.25498475 296.96871751 -241 267 C-240.20464844 265.9996875 -239.40929687 264.999375 -238.58984375 263.96875 C-231.7294096 255.54942151 -224.08970504 247.87834757 -216.4375 240.1875 C-215.64156937 239.38366882 -215.64156937 239.38366882 -214.82955933 238.56359863 C-208.599441 232.28576066 -202.27522535 226.37370986 -195.34130859 220.86987305 C-193.22669331 219.18104735 -191.19744405 217.43603589 -189.1875 215.625 C-180.45889793 207.93677676 -171.10546651 200.99970503 -161.6875 194.1875 C-160.95934082 193.66075684 -160.23118164 193.13401367 -159.48095703 192.59130859 C-155.02548045 189.39268594 -150.50466928 186.33886059 -145.87695312 183.39404297 C-143.18203907 181.39248739 -141.74796934 178.83291582 -140 176 C-137.01221545 173.02858687 -133.80324226 170.80326142 -130 169 C-130.18175781 170.13953125 -130.36351562 171.2790625 -130.55078125 172.453125 C-131.90059883 180.94300589 -133.22729991 189.43569482 -134.5 197.9375 C-134.6863501 199.17294556 -134.6863501 199.17294556 -134.87646484 200.43334961 C-135.51440317 204.67898187 -136.13133211 208.92621585 -136.71484375 213.1796875 C-138.8473313 228.50023239 -141.83705896 243.32840276 -149.140625 257.16015625 C-150.24268067 259.51955725 -150.14283712 261.42893189 -150 264 C-144.43638136 263.48111329 -140.20830245 262.03712894 -135.25 259.5 C-134.55116699 259.14542725 -133.85233398 258.79085449 -133.13232422 258.42553711 C-126.7195262 255.05406493 -121.3667247 250.85838587 -116 246 C-114.72382812 244.91912109 -114.72382812 244.91912109 -113.421875 243.81640625 C-107.1707175 238.43772625 -102.01245261 232.53441549 -97 226 C-96.33226562 225.14792969 -95.66453125 224.29585937 -94.9765625 223.41796875 C-79.5785123 203.12053895 -70.73433416 179.61567835 -65 155 C-61.625 154.375 -61.625 154.375 -58 154 C-56 156 -56 156 -55.76953125 158.25 C-55.78371094 159.1575 -55.79789063 160.065 -55.8125 161 C-55.81894531 161.886875 -55.82539062 162.77375 -55.83203125 163.6875 C-56.05795679 168.14296176 -56.52397931 172.56517434 -57 177 C-56.38930664 176.74420166 -55.77861328 176.48840332 -55.14941406 176.22485352 C-16.29042342 160.05521976 24.92809304 146.9349824 67.34611511 146.83133507 C69.7108494 146.82405056 72.07539001 146.8083017 74.44006348 146.78999329 C81.15516625 146.73805762 87.87014954 146.68956576 94.58544922 146.67407227 C98.71566683 146.66392651 102.84537312 146.634454 106.97538757 146.59275246 C108.53484716 146.58054885 110.09437917 146.57530146 111.65388489 146.57755089 C120.57128217 146.58725606 128.93713624 146.34805225 137 142 C139.66802426 139.49306892 139.66802426 139.49306892 141 137 C140.43716309 137.01047363 139.87432617 137.02094727 139.29443359 137.03173828 C106.22038398 137.56421228 74.18224087 129.69156806 45 114 C44.95745644 112.00045254 44.95919217 109.99958364 45 108 C46 107 46 107 49.1328125 106.75 C53.45123879 107.02917099 56.00229707 108.10178237 59.875 110 C80.43811166 119.58866837 114.65642591 133.29238845 137.59765625 127.32421875 C140.00638474 126.46293628 140.00638474 126.46293628 143 125 C132.68061698 114.0002181 116.77884967 108.39772859 103.34326172 102.10986328 C101.83668693 101.39628868 100.34624566 100.64700577 98.87939453 99.85498047 C96.88900346 98.792956 96.88900346 98.792956 94 99 C93.87625 98.48695313 93.7525 97.97390625 93.625 97.4453125 C85.17013783 66.05663668 63.88062595 41.02322774 36.07373047 24.88183594 C25.56386277 18.98989994 14.58261113 15.20566572 3 12 C1.85789062 11.68160156 0.71578125 11.36320313 -0.4609375 11.03515625 C-61.06098243 -4.30566117 -135.51606864 20.29284498 -185 56 Z " fill="#042428" transform="translate(632,164)"/>
<path d="M0 0 C0.77472656 0.7425 1.54945313 1.485 2.34765625 2.25 C4.3050107 4.12565 6.32758905 5.80188253 8.4375 7.5 C23.6946188 20.8769486 33.23904945 40.33839745 39.5 59.3125 C39.5 59.9725 39.5 60.6325 39.5 61.3125 C40.82 61.6425 42.14 61.9725 43.5 62.3125 C43.5 62.6425 43.5 62.9725 43.5 63.3125 C37.32786053 63.6185565 31.87400695 62.43546143 25.875 61.0625 C16.4001409 58.99105532 6.92140151 57.37647412 -2.6875 56.0625 C-3.86715332 55.89975586 -5.04680664 55.73701172 -6.26220703 55.56933594 C-13.99355207 54.54400481 -21.71874664 53.83130393 -29.5 53.3125 C-29.6532373 52.23778442 -29.6532373 52.23778442 -29.80957031 51.14135742 C-30.6818275 45.33363464 -31.68990656 42.06671927 -36.5 38.3125 C-40.54247625 35.61751584 -43.7515027 35.64689867 -48.5 36.3125 C-52.41509162 38.34254751 -55.30206064 40.46610612 -57.5 44.3125 C-58.18973843 46.63911767 -58.85850261 48.97212183 -59.5 51.3125 C-60.37398437 51.35213867 -61.24796875 51.39177734 -62.1484375 51.43261719 C-91.73285056 52.8358611 -121.7174615 55.59406003 -149.56445312 66.55102539 C-151.74718823 67.40974774 -153.94827429 68.20460205 -156.15625 68.99609375 C-156.95160156 69.28419922 -157.74695313 69.57230469 -158.56640625 69.86914062 C-160.18755565 70.45592905 -161.80995695 71.03927034 -163.43359375 71.61914062 C-167.94716163 73.26143558 -172.22333811 75.09654304 -176.48925781 77.30102539 C-178.5930902 78.35932767 -180.72227603 79.31318649 -182.8828125 80.25 C-207.1986846 90.79868422 -230.80686006 103.67176663 -251.5 120.3125 C-253.01973006 121.45979621 -254.54046861 122.60575855 -256.0625 123.75 C-262.65378599 128.87655577 -268.96022555 134.61154492 -274.73046875 140.64453125 C-276.5 142.3125 -276.5 142.3125 -278.5 142.3125 C-278.73847656 142.8796875 -278.97695313 143.446875 -279.22265625 144.03125 C-280.76968523 146.79413967 -282.65418215 148.62291441 -284.9375 150.8125 C-287.21199133 153.00080797 -289.30188771 155.04027041 -291.16015625 157.59375 C-291.60230469 158.1609375 -292.04445313 158.728125 -292.5 159.3125 C-293.16 159.3125 -293.82 159.3125 -294.5 159.3125 C-294.77384521 159.89717041 -295.04769043 160.48184082 -295.32983398 161.08422852 C-296.46870582 163.25290852 -297.71409768 165.03983228 -299.22265625 166.96484375 C-299.75673096 167.65223633 -300.29080566 168.33962891 -300.84106445 169.04785156 C-301.40913818 169.77456055 -301.97721191 170.50126953 -302.5625 171.25 C-318.6772619 192.11407181 -334.50165162 215.35357748 -343.5 240.3125 C-343.72848633 240.93898438 -343.95697266 241.56546875 -344.19238281 242.2109375 C-345.75927021 246.51936976 -347.27552903 250.84348016 -348.76367188 255.1796875 C-349.47098234 257.22844885 -350.19469423 259.27072224 -350.921875 261.3125 C-353.25796097 267.96414861 -355.11528705 274.43010665 -356.04296875 281.43359375 C-356.5 284.3125 -356.5 284.3125 -357.39453125 287.73828125 C-359.19959178 294.73754621 -360.17085989 301.93086277 -361.32275391 309.06005859 C-361.63659942 310.99408992 -361.95881727 312.92675675 -362.28125 314.859375 C-362.46751953 316.00245117 -362.65378906 317.14552734 -362.84570312 318.32324219 C-363.5 321.3125 -363.5 321.3125 -365.5 325.3125 C-368.14 323.0025 -370.78 320.6925 -373.5 318.3125 C-373.17 317.3225 -372.84 316.3325 -372.5 315.3125 C-372.40380655 312.87654245 -372.37017735 310.43785133 -372.375 308 C-372.37242187 306.70449219 -372.36984375 305.40898437 -372.3671875 304.07421875 C-372.39705877 300.49113011 -372.39705877 300.49113011 -372.99560547 297.73339844 C-373.68086661 293.08582871 -373.68253971 288.5085105 -373.703125 283.81640625 C-373.70882507 282.79183823 -373.71452515 281.7672702 -373.72039795 280.71165466 C-373.72983248 278.537191 -373.73637578 276.36271313 -373.74023438 274.18823242 C-373.74979405 270.94487383 -373.78076948 267.70219042 -373.8125 264.45898438 C-373.90520404 246.28933954 -372.2901268 228.42098713 -368.1875 210.6875 C-367.97585205 209.74986816 -367.7642041 208.81223633 -367.54614258 207.84619141 C-359.2425683 171.85900192 -344.97861235 138.07651187 -324.5 107.3125 C-323.7869873 106.23355469 -323.7869873 106.23355469 -323.05957031 105.1328125 C-314.20749437 91.80204454 -304.94013851 78.59976739 -293.94921875 66.9375 C-291.98082739 64.82783653 -290.09880562 62.68600098 -288.22265625 60.49609375 C-284.46926515 56.18991673 -280.42712887 52.26653755 -276.25 48.375 C-275.50129639 47.67479736 -274.75259277 46.97459473 -273.98120117 46.25317383 C-268.33760377 41.01203915 -262.56458725 36.06323836 -256.5 31.3125 C-255.41439701 30.43609301 -254.32981781 29.55841683 -253.24609375 28.6796875 C-215.75044516 -1.54812881 -169.45812634 -19.43935069 -122.5 -28.6875 C-121.42854736 -28.9035791 -121.42854736 -28.9035791 -120.33544922 -29.12402344 C-80.8899989 -36.75993346 -30.50748188 -27.34029293 0 0 Z " fill="#4FDCCB" transform="translate(686.5,201.6875)"/>
<path d="M0 0 C20.73181641 16.12659336 34.74710192 38.39350338 38.18994141 64.66308594 C38.4877339 69.70551457 38.53074979 74.73852063 38.50244141 79.78808594 C38.49920868 80.82088181 38.49920868 80.82088181 38.49591064 81.87454224 C38.35009715 110.86487846 28.88132618 135.52475099 8.68994141 156.53808594 C-12.71231435 177.0081877 -40.21754078 183.4203876 -68.99755859 182.96777344 C-88.95684616 182.29840709 -108.6673614 175.50805206 -124.81005859 163.66308594 C-125.64537109 163.05980469 -126.48068359 162.45652344 -127.34130859 161.83496094 C-146.42247222 147.34741077 -159.47080107 124.95914052 -163.36083984 101.31542969 C-165.39844199 83.90208178 -165.5077726 64.32372822 -159.81005859 47.66308594 C-159.47103516 46.56222656 -159.13201172 45.46136719 -158.78271484 44.32714844 C-150.38945962 19.65515978 -131.335696 1.77159663 -108.61083984 -9.99316406 C-73.89292325 -26.09899046 -31.03563773 -22.92300408 0 0 Z " fill="#032529" transform="translate(368.81005859375,663.3369140625)"/>
<path d="M0 0 C13.53 0 27.06 0 41 0 C41 70.95 41 141.9 41 215 C28.46 215 15.92 215 3 215 C2.505 207.575 2.505 207.575 2 200 C0.88625 201.19625 -0.2275 202.3925 -1.375 203.625 C-11.96638209 214.12363794 -24.57977105 218.35087987 -39.3125 218.5625 C-57.24707502 218.43433868 -73.31319618 211.75802684 -86.13671875 199.1171875 C-100.86959404 183.67898875 -106.60935138 162.52018703 -106.4375 141.625 C-106.43137695 140.35293701 -106.42525391 139.08087402 -106.41894531 137.77026367 C-106.26563483 128.56043149 -105.30719008 120.6540061 -102 112 C-101.72285156 111.12472656 -101.44570313 110.24945312 -101.16015625 109.34765625 C-95.89751048 93.99625176 -83.9341776 81.77380435 -70 74 C-54.56032622 67.12295788 -36.00414483 64.68695106 -19.83203125 70.6640625 C-12.42600527 74.15766372 -6.79835958 78.20164042 -1 84 C-0.67 56.28 -0.34 28.56 0 0 Z " fill="#03252A" transform="translate(625,627)"/>
<path d="M0 0 C0.63405762 0.26312988 1.26811523 0.52625977 1.92138672 0.79736328 C12.33373986 5.19369016 20.20326378 10.86894737 28 19 C28.68707031 19.70253906 29.37414062 20.40507813 30.08203125 21.12890625 C43.6576044 35.76923023 48.71769227 55.01214993 48.25 74.5859375 C47.33461088 95.37442433 38.86092064 113.32221222 23.78515625 127.65234375 C5.48991975 143.07371421 -15.47627677 147.59905699 -39 146 C-58.08109791 143.70046312 -74.11081608 133.33729427 -86.609375 119.109375 C-100.58188856 100.93597501 -104.41672073 78.0812052 -101.71582031 55.63867188 C-99.40445162 42.56363717 -92.80505219 29.84094069 -84 20 C-83.34515625 19.25234375 -82.6903125 18.5046875 -82.015625 17.734375 C-62.42054406 -3.29100382 -26.68411676 -11.55766039 0 0 Z " fill="#032429" transform="translate(783,699)"/>
<path d="M0 0 C13.6948087 11.65515634 20.90691829 26.30122499 23.3828125 44 C24.78072717 63.81107192 20.06297949 83.44415228 7.3828125 99 C-3.09616932 110.45253588 -16.55891221 116.48173512 -32.01953125 117.28125 C-48.41981483 117.781111 -63.76319385 113.93409501 -76.5546875 103.1875 C-89.51143202 90.71152522 -96.50985469 73.65468318 -97.04101562 55.81054688 C-97.15168973 36.09474627 -91.56905246 18.29353463 -77.9296875 3.8125 C-56.98133467 -16.41457721 -22.90161163 -17.50093306 0 0 Z " fill="#F8F3E9" transform="translate(342.6171875,693)"/>
<path d="M0 0 C0.99 1.485 0.99 1.485 2 3 C3.32 3 4.64 3 6 3 C6.99 3.33 7.98 3.66 9 4 C9.625 6.375 9.625 6.375 10 9 C9.34 9.66 8.68 10.32 8 11 C5.04337034 10.77256695 3.44966312 10.38764062 1.1875 8.4375 C0.5996875 7.7259375 0.5996875 7.7259375 0 7 C-0.928125 7.495 -1.85625 7.99 -2.8125 8.5 C-6 10 -6 10 -9 10 C-7.906875 10.103125 -6.81375 10.20625 -5.6875 10.3125 C-2.14440371 10.97307727 -1.06756277 11.2027092 1 14 C0.01 15.98 -0.98 17.96 -2 20 C-2.66 20 -3.32 20 -4 20 C-3.505 21.485 -3.505 21.485 -3 23 C-3.99 23 -4.98 23 -6 23 C-6.495 24.485 -6.495 24.485 -7 26 C-8.32 26 -9.64 26 -11 26 C-11.33 26.66 -11.66 27.32 -12 28 C-12.66 28 -13.32 28 -14 28 C-14.99 29.98 -15.98 31.96 -17 34 C-17.66 34 -18.32 34 -19 34 C-17.515 34.99 -17.515 34.99 -16 36 C-15.71125 36.763125 -15.4225 37.52625 -15.125 38.3125 C-13.71844912 41.67259378 -11.65582293 43.5538473 -9 46 C-9.65585189 42.39007621 -9.65585189 42.39007621 -11 39 C-10.01 38.01 -10.01 38.01 -9 37 C-9 37.66 -9 38.32 -9 39 C-8.34 39 -7.68 39 -7 39 C-5.62689293 40.29233607 -4.28965176 41.62437146 -3 43 C-2.505 42.01 -2.505 42.01 -2 41 C-0.69084721 39.96854629 0.64082143 38.96457834 2 38 C2.33 38.33 2.66 38.66 3 39 C3.99 38.01 3.99 38.01 5 37 C5 37.99 5 38.98 5 40 C5.99 39.67 6.98 39.34 8 39 C8.33 39.66 8.66 40.32 9 41 C9.66 40.67 10.32 40.34 11 40 C9.54642846 44.24349111 7.29700426 47.51821699 4.625 51.0625 C-4.96219508 64.16109838 -13.04750599 78.28504048 -20.00830078 92.93554688 C-21.07316098 95.15230163 -22.17346859 97.34930717 -23.27734375 99.546875 C-31.52892877 116.15460398 -37.29607359 131.25493562 -36 150 C-35.7733667 149.44014404 -35.5467334 148.88028809 -35.31323242 148.3034668 C-34.27912309 145.76155595 -33.23346274 143.22455499 -32.1875 140.6875 C-31.83107422 139.80642578 -31.47464844 138.92535156 -31.10742188 138.01757812 C-30.75615234 137.17001953 -30.40488281 136.32246094 -30.04296875 135.44921875 C-29.72352295 134.66893311 -29.40407715 133.88864746 -29.07495117 133.0847168 C-27.97038374 130.94256342 -26.79017059 129.59398751 -25 128 C-1.99922108 140.69863363 16.33037337 156.20867378 25.40625 181.59765625 C26.0373548 184.15113949 26.11208778 186.37994819 26 189 C25.34515625 188.67386719 24.6903125 188.34773437 24.015625 188.01171875 C23.10296875 187.57472656 22.1903125 187.13773438 21.25 186.6875 C20.36828125 186.25824219 19.4865625 185.82898438 18.578125 185.38671875 C8.05356948 181.307879 -2.2778338 180.40951714 -13.46484375 180.00390625 C-20.88412647 179.59025704 -26.78044137 178.22222386 -33 174 C-34.0828125 172.63875 -34.0828125 172.63875 -35.1875 171.25 C-36.9003422 168.68171437 -36.9003422 168.68171437 -40.33984375 168.04296875 C-44.06930939 167.58624705 -44.06930939 167.58624705 -46.3359375 170.09765625 C-47.00882812 171.07605469 -47.68171875 172.05445313 -48.375 173.0625 C-52.40660309 178.43114912 -56.14349495 181.78545177 -62 185 C-62.69996094 185.391875 -63.39992188 185.78375 -64.12109375 186.1875 C-68.13274501 188.30109096 -72.23557729 190.11146039 -76.4375 191.80859375 C-98.76734106 200.62477333 -98.76734106 200.62477333 -115 217 C-115.66 217 -116.32 217 -117 217 C-117.81446904 192.29443911 -110.21411961 171.61393238 -94 153 C-93.1431471 151.91879007 -92.28843514 150.83587347 -91.4375 149.75 C-88.23360892 146.13535366 -84.69013559 143.1074826 -81 140 C-79.92281153 139.08376293 -78.84601612 138.16706363 -77.76953125 137.25 C-74.5221215 134.48887517 -71.27015169 131.73419853 -68 129 C-67.08605469 128.23171875 -66.17210937 127.4634375 -65.23046875 126.671875 C-63 125 -63 125 -61 124.9375 C-58.13150102 126.46139008 -56.18810713 128.62955061 -54 131 C-52.57607733 126.29398072 -51.53423974 121.7218949 -50.78125 116.8515625 C-50.67784302 116.1947348 -50.57443604 115.5379071 -50.46789551 114.86117554 C-50.14113217 112.78307049 -49.82005514 110.70414789 -49.5 108.625 C-47.79284845 97.59179061 -45.94505609 86.77235913 -42.75 76.0625 C-42.43011108 74.98548828 -42.43011108 74.98548828 -42.10375977 73.88671875 C-34.8887868 49.85932589 -34.8887868 49.85932589 -30 40 C-29.45988281 38.88238281 -28.91976562 37.76476562 -28.36328125 36.61328125 C-22.95562899 25.53563367 -17.00557812 14.76220859 -11 4 C-10.01 4.495 -10.01 4.495 -9 5 C-8.38125 4.34 -7.7625 3.68 -7.125 3 C-5 1 -5 1 -3 1 C-2.505 1.99 -2.505 1.99 -2 3 C-1.34 2.01 -0.68 1.02 0 0 Z M3 5 C2.67 5.99 2.34 6.98 2 8 C2.66 8 3.32 8 4 8 C3.67 7.01 3.34 6.02 3 5 Z " fill="#25C2B9" transform="translate(375,395)"/>
<path d="M0 0 C0.87011719 0.00902344 1.74023438 0.01804687 2.63671875 0.02734375 C4.7579342 0.05065381 6.87900562 0.08651421 9 0.125 C9.0248456 4.28759361 9.04292862 8.45014713 9.05493164 12.61279297 C9.0599392 14.02686313 9.06674718 15.44092816 9.07543945 16.85498047 C9.08766256 18.89552073 9.0932642 20.93599212 9.09765625 22.9765625 C9.10289307 24.20197754 9.10812988 25.42739258 9.11352539 26.68994141 C9.00646676 29.92932849 8.61478618 32.94683197 8 36.125 C7.14003418 36.13901855 7.14003418 36.13901855 6.26269531 36.15332031 C-14.24015074 36.49273515 -14.24015074 36.49273515 -32.0234375 45.9296875 C-39.11045299 53.80103673 -41.12554657 62.87898592 -41.20532227 73.12817383 C-41.21522186 73.91894318 -41.22512146 74.70971252 -41.23532104 75.52444458 C-41.26679926 78.12694346 -41.29163914 80.72946057 -41.31640625 83.33203125 C-41.3369876 85.1409298 -41.35798438 86.94982366 -41.37937927 88.75871277 C-41.43447797 93.51138509 -41.4839409 98.26409993 -41.53222656 103.0168457 C-41.59138092 108.72380965 -41.65754155 114.43069617 -41.72252655 120.13759613 C-41.82038248 128.80001665 -41.90934356 137.46248766 -42 146.125 C-54.87 146.125 -67.74 146.125 -81 146.125 C-81 98.935 -81 51.745 -81 3.125 C-68.79 3.125 -56.58 3.125 -44 3.125 C-43.505 15.005 -43.505 15.005 -43 27.125 C-42.195625 25.495625 -41.39125 23.86625 -40.5625 22.1875 C-34.50929014 11.17264271 -26.26994788 4.64194066 -14.31640625 1.00390625 C-9.54020007 -0.13814469 -4.88613698 -0.09757263 0 0 Z " fill="#042529" transform="translate(506,695.875)"/>
<path d="M0 0 C8.55955637 6.09107008 14.42653956 14.44246407 16.390625 24.81640625 C17.88836143 37.87593734 17.7855541 53.00727026 9.8984375 64.171875 C4.09773522 70.89309175 -2.3119405 76.18147869 -11.2890625 77.609375 C-22.91344246 78.44911349 -32.82377127 78.09744139 -42.58984375 70.91796875 C-51.00783798 63.32433554 -55.84685393 52.14300098 -56.50390625 40.94921875 C-56.9436741 27.4295911 -54.60908688 15.5910965 -45.21484375 5.34765625 C-32.45564843 -6.69898366 -15.28675435 -9.2868337 0 0 Z " fill="#F8F3E9" transform="translate(775.2890625,733.390625)"/>
<path d="M0 0 C9.43498113 6.34231676 14.33306807 14.79267545 16.5625 25.76953125 C18.37891505 39.18181026 17.78803851 54.44275054 10 66 C3.7108617 73.81329171 -4.12517954 77.72281502 -14 79 C-24.35900739 79.93656779 -34.08419102 78.05638589 -42.44140625 71.54296875 C-51.40839563 62.665874 -54.86706785 50.49762482 -55.3125 38.1875 C-54.96082136 25.15470343 -51.30723736 12.78547386 -41.8125 3.5625 C-29.80974242 -6.17973824 -13.68863167 -6.75491258 0 0 Z " fill="#F7F3E9" transform="translate(612,732)"/>
<path d="M0 0 C1.2375 0.24492187 2.475 0.48984375 3.75 0.7421875 C12.34980913 2.53463417 20.63405382 5.08055837 28.9375 7.9375 C29.88415527 8.26121582 30.83081055 8.58493164 31.80615234 8.91845703 C38.13244697 11.15446539 44.06966772 13.86457931 50 17 C45.74989741 20.43819216 41.41180505 23.75182764 37.0625 27.0625 C21.38045739 38.92569808 21.38045739 38.92569808 6.4765625 51.734375 C5.11296368 52.98183133 3.74092235 54.22094336 2.3347168 55.42016602 C-3.92090493 60.76372625 -9.66528222 66.58580897 -15.4375 72.4375 C-17.41251811 74.43904113 -19.39079955 76.43727427 -21.37109375 78.43359375 C-22.23661865 79.31072021 -23.10214355 80.18784668 -23.99389648 81.09155273 C-26 83 -26 83 -27 83 C-27.01458252 82.26475098 -27.02916504 81.52950195 -27.04418945 80.77197266 C-27.11939255 77.3891622 -27.21581182 74.00726189 -27.3125 70.625 C-27.34633789 68.89056641 -27.34633789 68.89056641 -27.38085938 67.12109375 C-27.90241876 50.33636433 -34.23981877 37.01811837 -46.38916016 25.40917969 C-53.30316109 19.36073874 -61.69838144 14.81874454 -70 11 C-70 10.34 -70 9.68 -70 9 C-49.61205108 -3.51665219 -22.95222441 -4.99210881 0 0 Z " fill="#25C7BD" transform="translate(406,183)"/>
<path d="M0 0 C9.91244134 -0.38759727 19.35657976 0.79388089 29.125 2.25 C30.28353989 2.41790543 30.28353989 2.41790543 31.46548462 2.58920288 C41.59739062 4.05778351 51.58988709 5.73671239 61.51171875 8.30078125 C65.03571361 9.15181254 65.03571361 9.15181254 68.83984375 8.83203125 C74.13204587 8.72413136 78.24403446 11.02711775 82.875 13.375 C84.23625 14.04631958 84.23625 14.04631958 85.625 14.73120117 C91.80811666 17.81253325 97.93154481 21.01127048 104 24.3125 C105.10190674 24.90587158 105.10190674 24.90587158 106.22607422 25.51123047 C110.49275406 27.89270283 113.71542103 30.37541578 117 34 C95.77634224 43.98760365 64.33545247 30.51904469 43.85375977 23.15942383 C34.20803447 19.62053614 34.20803447 19.62053614 29.71484375 17.3125 C26.3086125 15.66574647 23.73620201 15.70696455 20 16 C18.64381501 17.12534105 18.64381501 17.12534105 18.9375 20.0625 C18.958125 21.031875 18.97875 22.00125 19 23 C35.82069632 32.30085561 53.74858785 37.90573607 72.375 42.4375 C73.39005615 42.6845166 74.4051123 42.9315332 75.45092773 43.18603516 C85.39218555 45.49657681 94.94005504 46.15548054 105.125 46.0625 C106.08148437 46.05798828 107.03796875 46.05347656 108.0234375 46.04882812 C110.34902758 46.03720017 112.6744776 46.02086102 115 46 C112.10432762 50.96400979 108.56086713 52.37668458 103.36547852 54.17059326 C96.87191159 55.77090303 90.26897824 55.56221765 83.625 55.5390625 C82.04954687 55.54900226 80.47410531 55.56095572 78.89868164 55.57479858 C74.76978594 55.60696859 70.64115461 55.61753101 66.512146 55.62164307 C59.15381226 55.63147587 51.79563572 55.67361223 44.4375 55.7265625 C43.26563644 55.73403346 43.26563644 55.73403346 42.07009888 55.74165535 C31.79234357 55.81604851 21.639305 56.16482348 11.44140625 57.54516602 C1.97374228 58.79646128 1.97374228 58.79646128 -2 58 C-3.6875 56.54296875 -3.6875 56.54296875 -5 55 C-5.33 54.67 -5.66 54.34 -6 54 C-7.485 54.495 -7.485 54.495 -9 55 C-9.33 54.67 -9.66 54.34 -10 54 C-10.99 54.66 -11.98 55.32 -13 56 C-14.1875 53.25 -14.1875 53.25 -15 50 C-13.625 47.625 -13.625 47.625 -12 46 C-12.33 45.34 -12.66 44.68 -13 44 C-11.6 38.4 -11.6 38.4 -8 36 C-7.74969023 33.41619823 -7.74969023 33.41619823 -8 31 C-6.02 31.33 -4.04 31.66 -2 32 C-2 30.68 -2 29.36 -2 28 C-2.66 27.67 -3.32 27.34 -4 27 C-3.67 26.4225 -3.34 25.845 -3 25.25 C-1.72924102 22.80116138 -1.72924102 22.80116138 -2 19 C-1.38001259 16.98504093 -0.72045764 14.9812585 0 13 C-0.99 12.67 -1.98 12.34 -3 12 C-3.33 12.66 -3.66 13.32 -4 14 C-7.375 14.125 -7.375 14.125 -11 14 C-11.66 13.34 -12.32 12.68 -13 12 C-8.8794254 10.00214565 -5.54805635 9.82164485 -1 10 C-0.67 9.01 -0.34 8.02 0 7 C2.0625 6.3125 2.0625 6.3125 4 6 C4 4.68 4 3.36 4 2 C2.68 1.34 1.36 0.68 0 0 Z M-2 53 C-1.34 53.66 -0.68 54.32 0 55 C0.33 54.34 0.66 53.68 1 53 C0.01 53 -0.98 53 -2 53 Z " fill="#25C7BD" transform="translate(658,255)"/>
<path d="M0 0 C3.21311994 9.93370318 0.32977549 25.24560064 -3 35 C-6.69505991 40.14304647 -12.4879521 41.79465045 -18.24023438 43.86474609 C-23.51928652 46.03633071 -28.21034879 49.23732838 -33 52.3125 C-34.01908447 52.95340576 -35.03816895 53.59431152 -36.08813477 54.25463867 C-45.35329806 60.11391639 -54.24280186 66.41183517 -63 73 C-63.61439941 73.45745605 -64.22879883 73.91491211 -64.86181641 74.38623047 C-71.42100723 79.27463317 -77.70971891 84.36991483 -83.73046875 89.9140625 C-85.8276005 91.84154676 -87.96376355 93.70761357 -90.125 95.5625 C-96.97026651 101.54005667 -103.12711894 108.07580072 -109 115 C-109.75023437 115.87269531 -110.50046875 116.74539063 -111.2734375 117.64453125 C-116.63286552 123.95918856 -121.62542685 130.43700552 -126.42089844 137.18774414 C-129.7950232 141.8975116 -129.7950232 141.8975116 -132 143 C-130.50444678 137.91671006 -128.31993321 133.53635468 -125.75 128.9375 C-125.10224609 127.7769812 -125.10224609 127.7769812 -124.44140625 126.59301758 C-116.1413663 111.99674634 -106.6008082 98.0209284 -96 85 C-95.21882813 84.01515625 -94.43765625 83.0303125 -93.6328125 82.015625 C-86.62325629 73.38868505 -78.76985958 65.55777499 -70.9375 57.6875 C-70.38296143 57.1276944 -69.82842285 56.56788879 -69.25708008 55.99111938 C-62.87867839 49.56598387 -56.42532916 43.48154605 -49.32373047 37.85229492 C-47.21381432 36.17043594 -45.19137444 34.43079226 -43.1875 32.625 C-31.78756065 22.5838413 -19.35489518 13.80844573 -7 5 C-5.65488116 4.03915594 -4.30982409 3.07822542 -2.96484375 2.1171875 C-1.49724609 1.06917969 -1.49724609 1.06917969 0 0 Z " fill="#077578" transform="translate(486,346)"/>
<path d="M0 0 C23.99955164 11.04404146 41.75686684 28.1848395 51.16015625 53.0703125 C51.96785464 55.88786501 52.17112124 58.09093887 52 61 C51.34515625 60.67386719 50.6903125 60.34773437 50.015625 60.01171875 C49.10296875 59.57472656 48.1903125 59.13773438 47.25 58.6875 C46.36828125 58.25824219 45.4865625 57.82898438 44.578125 57.38671875 C34.05356948 53.307879 23.7221662 52.40951714 12.53515625 52.00390625 C5.10368402 51.58957743 -0.76013483 50.20329663 -7 46 C-8.37013339 44.36345179 -9.7120272 42.70196405 -11 41 C-14.12133744 39.65227097 -14.12133744 39.65227097 -17 39 C-15.66666667 35 -14.33333333 31 -13 27 C-12.77439324 24.60745424 -12.59151405 22.21071877 -12.4375 19.8125 C-12.35371094 18.54019531 -12.26992188 17.26789062 -12.18359375 15.95703125 C-12.12300781 14.98121094 -12.06242187 14.00539063 -12 13 C-11.67 13 -11.34 13 -11 13 C-10.67 15.97 -10.34 18.94 -10 22 C-9.44570313 20.66324219 -8.89140625 19.32648437 -8.3203125 17.94921875 C-7.58870773 16.19524322 -6.85692777 14.44134076 -6.125 12.6875 C-5.76019531 11.80642578 -5.39539063 10.92535156 -5.01953125 10.01757812 C-4.66503906 9.17001953 -4.31054688 8.32246094 -3.9453125 7.44921875 C-3.62062988 6.66893311 -3.29594727 5.88864746 -2.96142578 5.0847168 C-2 3 -2 3 0 0 Z " fill="#0E8C8A" transform="translate(349,523)"/>
<path d="M0 0 C5.13689458 24.15563521 4.81727003 48.40274381 -8.5625 70.0625 C-10.75045841 73.42275945 -12.98940899 76.33418014 -16 79 C-16.66 79 -17.32 79 -18 79 C-18.34611328 77.38544922 -18.34611328 77.38544922 -18.69921875 75.73828125 C-22.68880216 57.64675878 -28.93102606 42.51974398 -41.08203125 28.27734375 C-43 26 -43 26 -45 23 C-40.91860397 19.50964762 -36.61538987 16.89759591 -31.9375 14.3125 C-31.16470703 13.88404785 -30.39191406 13.4555957 -29.59570312 13.01416016 C-5.69740682 0 -5.69740682 0 0 0 Z " fill="#094E53" transform="translate(620,335)"/>
<path d="M0 0 C1.85733769 5.54261388 0.58968149 11.52115559 -0.02929688 17.21679688 C-0.17586314 18.65003337 -0.30169974 20.08554836 -0.40625 21.52246094 C-1.28170566 33.43412952 -1.28170566 33.43412952 -5.46875 37.24975586 C-8.27796215 38.80106628 -10.96725008 39.96277798 -14 41 C-14.78600586 41.31864014 -15.57201172 41.63728027 -16.38183594 41.96557617 C-19.21479841 43.09830402 -22.10619562 44.03539854 -25 45 C-25.66 43.68 -26.32 42.36 -27 41 C-28.62831762 42.80961577 -28.62831762 42.80961577 -30 45 C-29.67 45.99 -29.34 46.98 -29 48 C-30.485 48.495 -30.485 48.495 -32 49 C-33.5625 46.625 -33.5625 46.625 -35 44 C-34.67 43.34 -34.34 42.68 -34 42 C-33.34 42 -32.68 42 -32 42 C-31.3121764 39.64632287 -31.3121764 39.64632287 -31 37 C-31.66 36.01 -32.32 35.02 -33 34 C-33.66 34 -34.32 34 -35 34 C-35.33 34.99 -35.66 35.98 -36 37 C-36.33 35.68 -36.66 34.36 -37 33 C-36.34 33 -35.68 33 -35 33 C-34.62875 32.0409375 -34.62875 32.0409375 -34.25 31.0625 C-33 29 -33 29 -30.875 28.25 C-29.946875 28.12625 -29.946875 28.12625 -29 28 C-29 27.34 -29 26.68 -29 26 C-32.9743071 27.32476903 -35.15279292 28.96297912 -38 32 C-38.99 32.66 -39.98 33.32 -41 34 C-41.73343428 37.06556598 -41.73343428 37.06556598 -42 40 C-40.515 39.505 -40.515 39.505 -39 39 C-39 40.65 -39 42.3 -39 44 C-39.99 43.34 -40.98 42.68 -42 42 C-42.99 42.495 -42.99 42.495 -44 43 C-44.66 42.01 -45.32 41.02 -46 40 C-46.99 40 -47.98 40 -49 40 C-42.69891294 25.69900339 -19.41502562 13.85131585 -7 5 C-5.65488116 4.03915594 -4.30982409 3.07822542 -2.96484375 2.1171875 C-1.98644531 1.41851562 -1.00804687 0.71984375 0 0 Z M-35 47 C-34.34 47.66 -33.68 48.32 -33 49 C-33.66 49 -34.32 49 -35 49 C-35 48.34 -35 47.68 -35 47 Z " fill="#056A6F" transform="translate(486,346)"/>
<path d="M0 0 C4.54700762 2.11204576 8.17621281 5.27960962 10 10 C10.69559319 14.68655909 10.47692388 18.02780901 8.375 22.3125 C5.15743681 25.95342677 2.56029164 28.5913541 -2.3984375 29.3828125 C-8.07276385 29.63841279 -11.6477906 28.92760361 -16 25 C-19.55195809 21.0928461 -19.61846426 16.80760633 -19.48828125 11.73046875 C-18.70627319 7.3574797 -16.43705865 4.70392458 -13 2 C-8.76246303 -0.5339615 -4.82742211 -0.79778645 0 0 Z " fill="#03252A" transform="translate(647,237)"/>
<path d="M0 0 C11.88 0 23.76 0 36 0 C36 70.95 36 141.9 36 215 C23.46 215 10.92 215 -2 215 C-2 200 -2 200 0 198 C0 202.95 0 207.9 0 213 C11.55 213 23.1 213 35 213 C35 143.04 35 73.08 35 1 C23.45 1 11.9 1 0 1 C0 0.67 0 0.34 0 0 Z " fill="#000001" transform="translate(630,627)"/>
<path d="M0 0 C22.56214575 10.38258035 40.74070571 26.62407671 50 50 C51.39614525 53.88081052 52.24335979 56.86288352 52 61 C50.35 60.01 48.7 59.02 47 58 C47.66 57.67 48.32 57.34 49 57 C45.78162729 44.60626658 40.80493278 34.75406846 32.25 25.25 C31.77812256 24.72398193 31.30624512 24.19796387 30.82006836 23.65600586 C29.61229961 22.37230665 28.31133969 21.17769998 27 20 C26.01 20 25.02 20 24 20 C23.34064453 18.88044922 23.34064453 18.88044922 22.66796875 17.73828125 C20.65182336 14.42840322 18.61556908 13.16934145 15.3125 11.1875 C14.31863281 10.58292969 13.32476562 9.97835937 12.30078125 9.35546875 C11.54152344 8.90816406 10.78226562 8.46085938 10 8 C9.38125 8.78375 8.7625 9.5675 8.125 10.375 C6 13 6 13 4 15 C1.31160615 15.26991906 -1.29141936 15.08737357 -4 15 C-4 15.66 -4 16.32 -4 17 C-4.66 17 -5.32 17 -6 17 C-6.66 18.32 -7.32 19.64 -8 21 C-7.41432875 16.59759475 -6.30527385 12.89276282 -4.5625 8.8125 C-3.91474609 7.27529297 -3.91474609 7.27529297 -3.25390625 5.70703125 C-2 3 -2 3 0 0 Z " fill="#139191" transform="translate(349,523)"/>
<path d="M0 0 C-9.49132144 9.00458701 -20.21018907 8.41316162 -32.50390625 8.29296875 C-34.19497804 8.28736481 -35.88605475 8.28309849 -37.57713318 8.28010559 C-42.00112653 8.26871953 -46.42481853 8.23930702 -50.84869385 8.20599365 C-55.37369716 8.17515732 -59.89874975 8.16157143 -64.42382812 8.14648438 C-73.28268357 8.11443055 -82.1413166 8.06331083 -91 8 C-91 7.67 -91 7.34 -91 7 C-83.68934834 5.84673672 -76.48345706 5.8723388 -69.09375 5.90234375 C-67.75996962 5.90421228 -66.42618854 5.90563413 -65.09240723 5.90663147 C-61.60723933 5.9104224 -58.1221141 5.92022285 -54.63696289 5.93133545 C-51.07048113 5.94162377 -47.50399237 5.94614489 -43.9375 5.95117188 C-36.95831597 5.9618487 -29.97916004 5.97888324 -23 6 C-23 4.68 -23 3.36 -23 2 C-22.34 2 -21.68 2 -21 2 C-21 2.66 -21 3.32 -21 4 C-18.03 4.495 -18.03 4.495 -15 5 C-15.495 3.515 -15.495 3.515 -16 2 C-17.65 1.67 -19.3 1.34 -21 1 C-21 0.67 -21 0.34 -21 0 C-17.87549468 -0.19645093 -14.75038555 -0.38063489 -11.625 -0.5625 C-10.73554687 -0.61857422 -9.84609375 -0.67464844 -8.9296875 -0.73242188 C-7.65351562 -0.80493164 -7.65351562 -0.80493164 -6.3515625 -0.87890625 C-5.56604004 -0.9260376 -4.78051758 -0.97316895 -3.97119141 -1.02172852 C-2 -1 -2 -1 0 0 Z " fill="#37DAD2" transform="translate(773,302)"/>
<path d="M0 0 C1.65 0 3.3 0 5 0 C4.01 0.33 3.02 0.66 2 1 C2 29.38 2 57.76 2 87 C-3.14860706 85.71284823 -3.86461447 84.09341999 -7 80 C-4.53199953 81.15173355 -2.95216435 82.04783565 -1 84 C-0.67 56.28 -0.34 28.56 0 0 Z " fill="#313B39" transform="translate(625,627)"/>
<path d="M0 0 C4.81062893 1.34958821 8.56157124 3.45601895 12.5625 6.375 C13.15949707 6.80474121 13.75649414 7.23448242 14.37158203 7.67724609 C21.05117492 12.59877435 27.0430965 18.24100027 33 24 C32.34 24.66 31.68 25.32 31 26 C30.608125 25.34 30.21625 24.68 29.8125 24 C28.16642268 21.73447735 28.16642268 21.73447735 25.5 21.75 C24.2625 21.87375 24.2625 21.87375 23 22 C22.01 22 21.02 22 20 22 C20.04125 20.824375 20.0825 19.64875 20.125 18.4375 C19.76791432 15.15348251 19.19377495 14.17660919 16.70703125 11.91015625 C14.18618251 10.17151727 11.6476937 8.53768055 9 7 C9 7.99 9 8.98 9 10 C8.34 10.66 7.68 11.32 7 12 C7.66 12.66 8.32 13.32 9 14 C8.01 14.99 7.02 15.98 6 17 C6.66 17 7.32 17 8 17 C8.66 18.32 9.32 19.64 10 21 C9.01 20.67 8.02 20.34 7 20 C7 19.34 7 18.68 7 18 C6.34 18 5.68 18 5 18 C4.67 18.66 4.34 19.32 4 20 C1.96080222 15.92160444 3.33287704 11.33629925 4 7 C2.68 6.67 1.36 6.34 0 6 C-1.125 2.25 -1.125 2.25 0 0 Z M-1 6 C-1 9 -1 9 -1 9 Z " fill="#53DFCF" transform="translate(666,189)"/>
<path d="M0 0 C0.66 0.66 1.32 1.32 2 2 C2.66 1.67 3.32 1.34 4 1 C3.96519531 1.97582031 3.93039062 2.95164062 3.89453125 3.95703125 C3.86746094 5.22933594 3.84039063 6.50164062 3.8125 7.8125 C3.77769531 9.07707031 3.74289062 10.34164063 3.70703125 11.64453125 C3.6761484 14.96112588 3.6761484 14.96112588 5.51171875 16.82421875 C6.00285156 17.21222656 6.49398437 17.60023438 7 18 C7 18.66 7 19.32 7 20 C7 17.36 7 14.72 7 12 C8.32 12.33 9.64 12.66 11 13 C11 13.99 11 14.98 11 16 C11.33 16.66 11.66 17.32 12 18 C13.32 17.67 14.64 17.34 16 17 C14.35090519 20.29818961 10.72914036 20.870756 7.4375 22.125 C6.37112305 22.54072266 6.37112305 22.54072266 5.28320312 22.96484375 C3.52453504 23.64942596 1.76256576 24.32551635 0 25 C0.0721875 24.40574219 0.144375 23.81148438 0.21875 23.19921875 C0.92739895 16.87058997 1.65118128 10.35729521 1 4 C0.34 3.34 -0.32 2.68 -1 2 C-4.59679066 2.32326553 -4.59679066 2.32326553 -8 3 C-8.25394531 3.97839844 -8.50789062 4.95679688 -8.76953125 5.96484375 C-10.62800556 13.06454166 -12.56837361 20.06986479 -15 27 C-16.52500923 22.4249723 -14.96440317 18.64739911 -13.8125 14.0625 C-13.60302734 13.15564453 -13.39355469 12.24878906 -13.17773438 11.31445312 C-11.18503872 3.27862704 -9.13189814 -1.01465535 0 0 Z " fill="#32D5CD" transform="translate(575,316)"/>
<path d="M0 0 C1.32 1.32 2.64 2.64 4 4 C4.33 3.01 4.66 2.02 5 1 C6 4 6 4 5.3125 6.0625 C4 8 4 8 1.9375 9 C1.298125 9.33 0.65875 9.66 0 10 C-0.39044206 11.31774196 -0.70955086 12.65667272 -1 14 C-2.24131781 16.39507379 -3.61757866 18.68109968 -5 21 C-5.66 21 -6.32 21 -7 21 C-7.33 19.68 -7.66 18.36 -8 17 C-11.3 23.6 -14.6 30.2 -18 37 C-19 34 -19 34 -18.33837891 32.0456543 C-17.97147949 31.31258057 -17.60458008 30.57950684 -17.2265625 29.82421875 C-16.81776855 29.00211914 -16.40897461 28.18001953 -15.98779297 27.33300781 C-15.53807129 26.45999023 -15.08834961 25.58697266 -14.625 24.6875 C-14.17398926 23.79772461 -13.72297852 22.90794922 -13.25830078 21.99121094 C-9.31106095 14.33370343 -4.86728192 7.10105865 0 0 Z " fill="#58E1D5" transform="translate(358,316)"/>
<path d="M0 0 C0.66 1.32 1.32 2.64 2 4 C2.66 4 3.32 4 4 4 C4.33 3.34 4.66 2.68 5 2 C8 3 8 3 9.9375 5.125 C10.618125 5.74375 11.29875 6.3625 12 7 C14.21858253 6.86358623 14.21858253 6.86358623 16 6 C16 6.66 16 7.32 16 8 C17.65 7.67 19.3 7.34 21 7 C16.70453259 11.86819639 11.64934204 14.86760059 6 18 C5.30003906 18.40863281 4.60007812 18.81726563 3.87890625 19.23828125 C2 20 2 20 -1 19 C-0.34 18.608125 0.32 18.21625 1 17.8125 C3.29166667 16.14583333 3.29166667 16.14583333 3.25 13.3125 C3.1675 12.549375 3.085 11.78625 3 11 C3.433125 11.474375 3.86625 11.94875 4.3125 12.4375 C6.02309613 14.23686957 6.02309613 14.23686957 9 15 C9 12.69 9 10.38 9 8 C6.36 7.34 3.72 6.68 1 6 C0.67 6.66 0.34 7.32 0 8 C-1.31328657 9.35308313 -2.64499081 10.68870078 -4 12 C-3.33501617 7.61110675 -1.81242323 4.0188515 0 0 Z " fill="#2CCBC2" transform="translate(490,406)"/>
<path d="M0 0 C0.33 0.99 0.66 1.98 1 3 C1.598125 2.484375 2.19625 1.96875 2.8125 1.4375 C3.534375 0.963125 4.25625 0.48875 5 0 C5.99 0.33 6.98 0.66 8 1 C8 1.99 8 2.98 8 4 C9.9375006 6.18777466 9.9375006 6.18777466 12 8 C11 11 11 11 7 13 C4.69 14.98 2.38 16.96 0 19 C0 12.73 0 6.46 0 0 Z " fill="#22C4BB" transform="translate(381,243)"/>
<path d="M0 0 C0.66 0 1.32 0 2 0 C2 0.66 2 1.32 2 2 C3.32 1.34 4.64 0.68 6 0 C6 0.66 6 1.32 6 2 C6.99 2.33 7.98 2.66 9 3 C9 3.66 9 4.32 9 5 C12.3 4.67 15.6 4.34 19 4 C16.23071995 5.8461867 14.86301194 6.41196197 11.7265625 7.0703125 C10.9015625 7.24433594 10.0765625 7.41835938 9.2265625 7.59765625 C8.36804688 7.77167969 7.50953125 7.94570313 6.625 8.125 C5.77421875 8.30675781 4.9234375 8.48851562 4.046875 8.67578125 C-0.01806019 9.51789399 -3.8238433 10.25778745 -8 10 C-7.7215625 9.1028125 -7.7215625 9.1028125 -7.4375 8.1875 C-6.77906313 5.83591238 -6.77906313 5.83591238 -8 3 C-7.34 2.34 -6.68 1.68 -6 1 C-3.375 1.375 -3.375 1.375 -1 2 C-0.67 1.34 -0.34 0.68 0 0 Z M9 0 C9.99 0.33 10.98 0.66 12 1 C11.01 1 10.02 1 9 1 C9 0.67 9 0.34 9 0 Z " fill="#2ACDC4" transform="translate(647,308)"/>
<path d="M0 0 C0.33 0.66 0.66 1.32 1 2 C0.00390625 4.3828125 0.00390625 4.3828125 -1.4375 7.125 C-1.91058594 8.03507813 -2.38367188 8.94515625 -2.87109375 9.8828125 C-3.24363281 10.58148437 -3.61617188 11.28015625 -4 12 C-2.94729537 13.15811388 -2.94729537 13.15811388 -1 14 C-1.78375 14.515625 -2.5675 15.03125 -3.375 15.5625 C-8.40127516 20.22975551 -8.33978392 26.94289214 -8.625 33.4375 C-8.66367187 34.16904297 -8.70234375 34.90058594 -8.7421875 35.65429688 C-8.83533984 37.43583532 -8.91870286 39.21788122 -9 41 C-5.72226496 40.24849977 -5.72226496 40.24849977 -4 37 C-2.68 37.66 -1.36 38.32 0 39 C-0.95712891 39.83144531 -0.95712891 39.83144531 -1.93359375 40.6796875 C-2.75988281 41.40414062 -3.58617187 42.12859375 -4.4375 42.875 C-5.26121094 43.59429688 -6.08492188 44.31359375 -6.93359375 45.0546875 C-9.05982155 46.83238745 -9.05982155 46.83238745 -10 49 C-10.66 49 -11.32 49 -12 49 C-12.58200583 31.3458231 -9.41541616 15.14479705 0 0 Z " fill="#2FC9C3" transform="translate(270,563)"/>
<path d="M0 0 C0.99 0.33 1.98 0.66 3 1 C5.14255793 0.61067144 5.14255793 0.61067144 7 0 C6.67 1.65 6.34 3.3 6 5 C6.66 5 7.32 5 8 5 C8.33 4.01 8.66 3.02 9 2 C9.99 2.33 10.98 2.66 12 3 C11.01 3.495 11.01 3.495 10 4 C10 4.66 10 5.32 10 6 C9.34 6 8.68 6 8 6 C8.66 7.32 9.32 8.64 10 10 C10.62648438 9.77183594 11.25296875 9.54367187 11.8984375 9.30859375 C12.71570313 9.02113281 13.53296875 8.73367188 14.375 8.4375 C15.18710937 8.14746094 15.99921875 7.85742188 16.8359375 7.55859375 C19 7 19 7 21 8 C18.58449673 8.97511095 16.16704917 9.94473579 13.74609375 10.90625 C12.04653072 11.58317411 10.35042428 12.26893953 8.66015625 12.96875 C3.33370253 15.11123418 3.33370253 15.11123418 0 14 C0.99 13.01 1.98 12.02 3 11 C2.34 11 1.68 11 1 11 C1 9.35 1 7.7 1 6 C0.34 5.67 -0.32 5.34 -1 5 C-0.67 3.35 -0.34 1.7 0 0 Z " fill="#2ACBC1" transform="translate(592,318)"/>
<path d="M0 0 C0 0.66 0 1.32 0 2 C-0.66 2 -1.32 2 -2 2 C-2.33 3.32 -2.66 4.64 -3 6 C-4.2065625 5.9690625 -4.2065625 5.9690625 -5.4375 5.9375 C-7.93354885 5.70366379 -7.93354885 5.70366379 -9 7 C-7.08424874 8.12655813 -5.16736281 9.25118687 -3.25 10.375 C-2.18265625 11.00148437 -1.1153125 11.62796875 -0.015625 12.2734375 C4.70421319 15.16456558 4.70421319 15.16456558 10 16 C10 16.66 10 17.32 10 18 C9.34 18 8.68 18 8 18 C7.67 18.66 7.34 19.32 7 20 C6.17757813 19.40832031 5.35515625 18.81664062 4.5078125 18.20703125 C-2.08612031 13.52001663 -8.58987184 9.32870317 -16 6 C-16 5.34 -16 4.68 -16 4 C-5.62642369 -1.92482916 -5.62642369 -1.92482916 0 0 Z " fill="#2CCFC7" transform="translate(352,188)"/>
<path d="M0 0 C0.33 0 0.66 0 1 0 C1 4.95 1 9.9 1 15 C12.55 15 24.1 15 36 15 C36 15.66 36 16.32 36 17 C23.79 17 11.58 17 -1 17 C-1 2 -1 2 0 0 Z " fill="#010D11" transform="translate(629,825)"/>
<path d="M0 0 C-4.5519621 4.31852814 -8.80715527 6.72937936 -15 8 C-18.67040147 7.76062599 -19.88752062 7.07498625 -23 5 C-23 4.01 -23 3.02 -23 2 C-22.34 2 -21.68 2 -21 2 C-21 2.66 -21 3.32 -21 4 C-18.03 4.495 -18.03 4.495 -15 5 C-15.33 4.01 -15.66 3.02 -16 2 C-17.65 1.67 -19.3 1.34 -21 1 C-21 0.67 -21 0.34 -21 0 C-17.87549468 -0.19645093 -14.75038555 -0.38063489 -11.625 -0.5625 C-10.29082031 -0.64661133 -10.29082031 -0.64661133 -8.9296875 -0.73242188 C-7.65351562 -0.80493164 -7.65351562 -0.80493164 -6.3515625 -0.87890625 C-5.56604004 -0.9260376 -4.78051758 -0.97316895 -3.97119141 -1.02172852 C-2 -1 -2 -1 0 0 Z " fill="#31D2C9" transform="translate(773,302)"/>
<path d="M0 0 C1.09898702 3.29696105 0.87124444 4.40494903 0.0625 7.6875 C-0.13214844 8.49574219 -0.32679688 9.30398438 -0.52734375 10.13671875 C-0.68332031 10.75160156 -0.83929688 11.36648438 -1 12 C-1.33 11.01 -1.66 10.02 -2 9 C-2.66 9 -3.32 9 -4 9 C-3.67 10.32 -3.34 11.64 -3 13 C-4.1446875 13.2165625 -4.1446875 13.2165625 -5.3125 13.4375 C-8.08172908 13.9632594 -8.08172908 13.9632594 -11 15 C-11.33 17.97 -11.66 20.94 -12 24 C-12.33 24 -12.66 24 -13 24 C-14.32719886 17.03220597 -14.08825381 10.07011089 -14 3 C-12.25728062 5.297221 -10.60088848 7.59866729 -9 10 C-8.67 8.35 -8.34 6.7 -8 5 C-7.34 5 -6.68 5 -6 5 C-5.67 4.01 -5.34 3.02 -5 2 C-4.01 2.33 -3.02 2.66 -2 3 C-0.84188612 1.94729537 -0.84188612 1.94729537 0 0 Z M-4 5 C-3 8 -3 8 -3 8 Z " fill="#51DDCD" transform="translate(328,485)"/>
<path d="M0 0 C0 0.66 0 1.32 0 2 C1.65 2 3.3 2 5 2 C5.33 3.32 5.66 4.64 6 6 C5.030625 5.814375 4.06125 5.62875 3.0625 5.4375 C2.051875 5.293125 1.04125 5.14875 0 5 C-0.33 5.33 -0.66 5.66 -1 6 C-0.34 6.66 0.32 7.32 1 8 C-4.28 8 -9.56 8 -15 8 C-13.68 7.67 -12.36 7.34 -11 7 C-9.98888907 3.95086772 -9.98888907 3.95086772 -11 1 C-7.27569643 0.30710631 -3.78916254 -0.11144596 0 0 Z " fill="#23C5BA" transform="translate(752,301)"/>
<path d="M0 0 C12.87 0 25.74 0 39 0 C39.495 8.91 39.495 8.91 40 18 C40.495 19.485 40.495 19.485 41 21 C39.625 23.6875 39.625 23.6875 38 26 C37.67 26 37.34 26 37 26 C37 17.75 37 9.5 37 1 C24.79 1 12.58 1 0 1 C0 0.67 0 0.34 0 0 Z " fill="#FCFCFA" transform="translate(425,698)"/>
<path d="M0 0 C1.98 0.66 3.96 1.32 6 2 C5.75 3.875 5.75 3.875 5 6 C3 7.125 3 7.125 1 8 C0.67 8.66 0.34 9.32 0 10 C-2.3045052 10.63817067 -4.61496323 11.02037323 -6.96875 11.4375 C-7.6390625 11.623125 -8.309375 11.80875 -9 12 C-9.33 12.66 -9.66 13.32 -10 14 C-11.77305664 13.74412595 -13.54344608 13.46972261 -15.3125 13.1875 C-16.29863281 13.03667969 -17.28476562 12.88585937 -18.30078125 12.73046875 C-21.12699269 11.96563295 -22.1959128 11.24741238 -24 9 C-23.44054687 9.15855469 -22.88109375 9.31710937 -22.3046875 9.48046875 C-16.82496421 10.71572841 -11.71617445 10.82630622 -6.625 8.375 C-3.71969875 5.74639411 -1.98379438 3.35719049 0 0 Z M6 1 C9 2 9 2 9 2 Z " fill="#2DD2C9" transform="translate(657,255)"/>
<path d="M0 0 C0.66 0 1.32 0 2 0 C2 0.66 2 1.32 2 2 C2.66 2 3.32 2 4 2 C4.33 1.34 4.66 0.68 5 0 C5.33 0.33 5.66 0.66 6 1 C6.66 0.67 7.32 0.34 8 0 C8.33 0.99 8.66 1.98 9 3 C8.34 3 7.68 3 7 3 C6.731875 3.804375 6.46375 4.60875 6.1875 5.4375 C5.795625 6.283125 5.40375 7.12875 5 8 C4.01 8.33 3.02 8.66 2 9 C1.34 8.34 0.68 7.68 0 7 C-0.33 7.66 -0.66 8.32 -1 9 C-1.99 9.33 -2.98 9.66 -4 10 C-4.33 10.66 -4.66 11.32 -5 12 C-5.66 12 -6.32 12 -7 12 C-6.67 13.32 -6.34 14.64 -6 16 C-6.99 15.67 -7.98 15.34 -9 15 C-9.33 15.99 -9.66 16.98 -10 18 C-10.33 17.34 -10.66 16.68 -11 16 C-9.730624 14.08236785 -8.45944055 12.16593207 -7.1875 10.25 C-6.47980469 9.18265625 -5.77210938 8.1153125 -5.04296875 7.015625 C-1.4489917 1.71055753 -1.4489917 1.71055753 0 0 Z " fill="#057377" transform="translate(383,440)"/>
<path d="M0 0 C3.15685778 2.90926109 5.25095848 5.80261659 7.3125 9.5625 C7.84488281 10.51253906 8.37726562 11.46257812 8.92578125 12.44140625 C10 15 10 15 9 18 C8.01 16.02 7.02 14.04 6 12 C5.01 12 4.02 12 3 12 C2.01 11.67 1.02 11.34 0 11 C-0.33 12.32 -0.66 13.64 -1 15 C-1.99 14.67 -2.98 14.34 -4 14 C-4.33 13.01 -4.66 12.02 -5 11 C-4.01 10.34 -3.02 9.68 -2 9 C-1.95615553 7.33391013 -1.9603287 5.66619446 -2 4 C-1 1.6875 -1 1.6875 0 0 Z " fill="#55DED2" transform="translate(708,226)"/>
<path d="M0 0 C4.67105792 1.55701931 8.08705685 4.08447373 12 7 C11 9 11 9 8.25 10.125 C-0.39815641 12.36711462 -9.50269163 11.30435481 -18 9 C-18 8.67 -18 8.34 -18 8 C-10.08 8.33 -2.16 8.66 6 9 C6 8.34 6 7.68 6 7 C5.01 7.33 4.02 7.66 3 8 C3 6.35 3 4.7 3 3 C2.34 3 1.68 3 1 3 C0.67 2.01 0.34 1.02 0 0 Z " fill="#33D0C8" transform="translate(763,281)"/>
<path d="M0 0 C3.44318373 6.4272763 3.44318373 6.4272763 2.41088867 10.09057617 C2.0832251 10.81736572 1.75556152 11.54415527 1.41796875 12.29296875 C1.06283203 13.08767578 0.70769531 13.88238281 0.34179688 14.70117188 C-0.03912109 15.52166016 -0.42003906 16.34214844 -0.8125 17.1875 C-1.18181641 18.01958984 -1.55113281 18.85167969 -1.93164062 19.70898438 C-4.7250593 25.86252965 -4.7250593 25.86252965 -7 27 C-5.66666667 23 -4.33333333 19 -3 15 C-3.99 14.67 -4.98 14.34 -6 14 C-5.34 12.68 -4.68 11.36 -4 10 C-3.01 10 -2.02 10 -1 10 C-1 8.02 -1 6.04 -1 4 C-1.99 4 -2.98 4 -4 4 C-3.67 3.01 -3.34 2.02 -3 1 C-2.01 0.67 -1.02 0.34 0 0 Z " fill="#2DC8C0" transform="translate(349,486)"/>
<path d="M0 0 C9.83869742 3.56524227 17.45176263 11.98789911 25 19 C24.34 19.66 23.68 20.32 23 21 C22.608125 20.34 22.21625 19.68 21.8125 19 C20.16642268 16.73447735 20.16642268 16.73447735 17.5 16.75 C16.2625 16.87375 16.2625 16.87375 15 17 C14.01 17 13.02 17 12 17 C12 15.80375 12 14.6075 12 13.375 C11.66157491 10.49325912 11.25925439 9.2778556 9.2578125 7.1328125 C5.08859914 3.83643487 5.08859914 3.83643487 0 3 C0 2.01 0 1.02 0 0 Z " fill="#5BE0D7" transform="translate(674,194)"/>
<path d="M0 0 C0.66 0.33 1.32 0.66 2 1 C0.02 3.97 0.02 3.97 -2 7 C-1.38125 7.12375 -0.7625 7.2475 -0.125 7.375 C2 8 2 8 4 10 C2.35 10 0.7 10 -1 10 C-1 11.98 -1 13.96 -1 16 C-4.20395416 16 -6.09399739 15.25664978 -9 14 C-9 13.34 -9 12.68 -9 12 C-7.68 11.67 -6.36 11.34 -5 11 C-4.25042843 7.52852158 -4.25042843 7.52852158 -4 4 C-4.99 4.99 -5.98 5.98 -7 7 C-8.32 6.34 -9.64 5.68 -11 5 C-9.21289414 4.13633178 -7.4201535 3.28431406 -5.625 2.4375 C-4.62726563 1.96183594 -3.62953125 1.48617187 -2.6015625 0.99609375 C-1.74304688 0.66738281 -0.88453125 0.33867187 0 0 Z " fill="#58E3D4" transform="translate(500,192)"/>
<path d="M0 0 C2.88437779 1.29299694 4.87219421 2.65941363 7 5 C7.99 3.68 8.98 2.36 10 1 C10.99 1.33 11.98 1.66 13 2 C13.33 2.99 13.66 3.98 14 5 C13.67 5.66 13.34 6.32 13 7 C13.66 7.33 14.32 7.66 15 8 C14.195625 8.12375 13.39125 8.2475 12.5625 8.375 C11.716875 8.58125 10.87125 8.7875 10 9 C9.67 9.66 9.34 10.32 9 11 C8.67 10.67 8.34 10.34 8 10 C7.67 11.98 7.34 13.96 7 16 C6.67 16 6.34 16 6 16 C5.85304688 15.02160156 5.85304688 15.02160156 5.703125 14.0234375 C4.73513262 8.36568892 3.56508917 4.51577961 0 0 Z " fill="#56E3D5" transform="translate(651,239)"/>
<path d="M0 0 C5.92863717 1.16651426 11.38798394 2.75519358 17 5 C17 5.33 17 5.66 17 6 C15.329375 6.4021875 15.329375 6.4021875 13.625 6.8125 C9.78159049 7.65809019 9.78159049 7.65809019 8 11 C7.01 10.67 6.02 10.34 5 10 C4.8046875 6.97265625 4.8046875 6.97265625 4.609375 3.9453125 C4.16977388 1.79577869 4.16977388 1.79577869 1.953125 0.7421875 C1.30859375 0.49726563 0.6640625 0.25234375 0 0 Z " fill="#2BD0C6" transform="translate(698,289)"/>
<path d="M0 0 C1.0635774 3.19073219 0.89019883 3.93375957 0 7 C0 7.66 0 8.32 0 9 C1.98 8.34 3.96 7.68 6 7 C3.52010087 9.85818883 0.86353122 11.19893393 -2.5625 12.75 C-3.53316406 13.19859375 -4.50382812 13.6471875 -5.50390625 14.109375 C-6.32761719 14.40328125 -7.15132813 14.6971875 -8 15 C-8.66 14.67 -9.32 14.34 -10 14 C-9.34 12.68 -8.68 11.36 -8 10 C-5.69 10 -3.38 10 -1 10 C-2.65 9.01 -4.3 8.02 -6 7 C-5 4 -5 4 -3 2.9375 C-2.34 2.628125 -1.68 2.31875 -1 2 C-0.67 1.34 -0.34 0.68 0 0 Z " fill="#2AC6BF" transform="translate(290,579)"/>
<path d="M0 0 C0.66 0.33 1.32 0.66 2 1 C1.34 2.65 0.68 4.3 0 6 C-0.33 5.01 -0.66 4.02 -1 3 C-2.485 5.475 -2.485 5.475 -4 8 C-4.66 7.67 -5.32 7.34 -6 7 C-6.33 14.59 -6.66 22.18 -7 30 C-7.33 30 -7.66 30 -8 30 C-8 21.09 -8 12.18 -8 3 C-7.67 3.66 -7.34 4.32 -7 5 C-6.401875 4.360625 -5.80375 3.72125 -5.1875 3.0625 C-3 1 -3 1 0 0 Z " fill="#65ECE3" transform="translate(321,456)"/>
<path d="M0 0 C0.10183594 0.63421875 0.20367187 1.2684375 0.30859375 1.921875 C0.53675781 2.60765625 0.76492188 3.2934375 1 4 C3.99615946 5.3045656 3.99615946 5.3045656 7 6 C6.67 6.99 6.34 7.98 6 9 C6 8.34 6 7.68 6 7 C5.34 7 4.68 7 4 7 C3.67 7.99 3.34 8.98 3 10 C3 9.34 3 8.68 3 8 C0.1372845 7.75739699 -2.19319389 7.56257567 -5 8 C-7.8971941 10.31273442 -7.8971941 10.31273442 -10 13 C-10.99 13.495 -10.99 13.495 -12 14 C-10.41332422 10.09714233 -7.86649519 7.66479018 -4.875 4.75 C-3.96492188 3.85796875 -3.05484375 2.9659375 -2.1171875 2.046875 C-1.41851562 1.37140625 -0.71984375 0.6959375 0 0 Z " fill="#047075" transform="translate(413,406)"/>
<path d="M0 0 C1.01513672 -0.01836914 1.01513672 -0.01836914 2.05078125 -0.03710938 C5.76357044 -0.04809396 7.32983076 0.07405384 10.5 2.1875 C7.79283758 3.08988747 6.26223232 3.30601302 3.48828125 3.28515625 C2.35229492 3.28032227 2.35229492 3.28032227 1.19335938 3.27539062 C0.40767578 3.26701172 -0.37800781 3.25863281 -1.1875 3.25 C-1.98478516 3.24548828 -2.78207031 3.24097656 -3.60351562 3.23632812 C-5.56904257 3.2245585 -7.53453085 3.20662348 -9.5 3.1875 C-9.83 2.5275 -10.16 1.8675 -10.5 1.1875 C-6.94709436 0.00319812 -3.69749544 0.00352142 0 0 Z " fill="#EAE9E3" transform="translate(306.5,680.8125)"/>
<path d="M0 0 C0.33 0 0.66 0 1 0 C1 1.98 1 3.96 1 6 C2.32 5.67 3.64 5.34 5 5 C5 5.66 5 6.32 5 7 C5.99 7 6.98 7 8 7 C7.67 7.99 7.34 8.98 7 10 C6.67 9.34 6.34 8.68 6 8 C5.01 8.66 4.02 9.32 3 10 C3 10.99 3 11.98 3 13 C3.66 13.33 4.32 13.66 5 14 C3.35 14.33 1.7 14.66 0 15 C0 17.64 0 20.28 0 23 C-0.33 23 -0.66 23 -1 23 C-1.1567564 15.28410183 -0.67453101 7.68483539 0 0 Z " fill="#47D6C6" transform="translate(314,473)"/>
<path d="M0 0 C0.66 0 1.32 0 2 0 C2 0.66 2 1.32 2 2 C2.639375 2.2475 3.27875 2.495 3.9375 2.75 C6 4 6 4 6.75 6.125 C6.87375 7.053125 6.87375 7.053125 7 8 C2.72672888 9.24213914 0.28458881 8.69146302 -3.8125 7.0625 C-4.78832031 6.68222656 -5.76414062 6.30195312 -6.76953125 5.91015625 C-7.87361328 5.45962891 -7.87361328 5.45962891 -9 5 C-5.90279155 4.12159004 -4.09354597 4.00564594 -1 5 C-0.67 3.35 -0.34 1.7 0 0 Z " fill="#128F8D" transform="translate(390,571)"/>
<path d="M0 0 C1.65 0 3.3 0 5 0 C5 0.66 5 1.32 5 2 C6.65 1.34 8.3 0.68 10 0 C6.19588166 3.91939465 2.18423892 7.49102731 -2 11 C-2.66 10.67 -3.32 10.34 -4 10 C-3.525625 9.278125 -3.05125 8.55625 -2.5625 7.8125 C-1.05847097 5.10524774 -0.43400818 3.03805725 0 0 Z " fill="#2ACBC3" transform="translate(422,217)"/>
<path d="M0 0 C1 3 1 3 0.0625 5.1875 C-0.288125 5.785625 -0.63875 6.38375 -1 7 C0.32 7.33 1.64 7.66 3 8 C-0.3 8.33 -3.6 8.66 -7 9 C-6.34 8.34 -5.68 7.68 -5 7 C-6.32 6.67 -7.64 6.34 -9 6 C-8 5 -7 4 -6 3 C-6 2.34 -6 1.68 -6 1 C-4.02 0.67 -2.04 0.34 0 0 Z " fill="#2CD0C5" transform="translate(675,303)"/>
<path d="M0 0 C3 1 3 1 4 2 C4.66 2.33 5.32 2.66 6 3 C6 3.66 6 4.32 6 5 C5.01 5 4.02 5 3 5 C2.67 6.32 2.34 7.64 2 9 C0.02 9 -1.96 9 -4 9 C-3.52418802 7.68628013 -3.04424851 6.37405454 -2.5625 5.0625 C-2.29566406 4.33160156 -2.02882813 3.60070312 -1.75390625 2.84765625 C-1 1 -1 1 0 0 Z " fill="#098A89" transform="translate(336,552)"/>
<path d="M0 0 C0.33 0 0.66 0 1 0 C1.33 5.61 1.66 11.22 2 17 C4.64 14.36 7.28 11.72 10 9 C10 12 10 12 7.84765625 14.48046875 C6.92855469 15.37378906 6.00945312 16.26710938 5.0625 17.1875 C3.68771484 18.53908203 3.68771484 18.53908203 2.28515625 19.91796875 C0 22 0 22 -1 22 C-0.67 14.74 -0.34 7.48 0 0 Z " fill="#3BE0D9" transform="translate(380,244)"/>
<path d="M0 0 C1.89213369 2.38573379 3.02391783 4.07175348 4 7 C4.66 7.33 5.32 7.66 6 8 C6 8.99 6 9.98 6 11 C5.01 11.33 4.02 11.66 3 12 C2.67 14.97 2.34 17.94 2 21 C1.67 21 1.34 21 1 21 C-0.32719886 14.03220597 -0.08825381 7.07011089 0 0 Z M5 6 C5.66 6 6.32 6 7 6 C6.67 6.66 6.34 7.32 6 8 C5.67 7.34 5.34 6.68 5 6 Z " fill="#5CE9DF" transform="translate(314,488)"/>
<path d="M0 0 C-3.08809695 1.76462683 -4.23312136 2 -8 2 C-8.33 3.32 -8.66 4.64 -9 6 C-10.32 6.33 -11.64 6.66 -13 7 C-13 6.34 -13 5.68 -13 5 C-13.99 4.67 -14.98 4.34 -16 4 C-16 3.34 -16 2.68 -16 2 C-16.66 1.67 -17.32 1.34 -18 1 C-15.93769732 0.8309093 -13.8751477 0.66482867 -11.8125 0.5 C-10.08966797 0.36078125 -10.08966797 0.36078125 -8.33203125 0.21875 C-5.53927574 0.0354038 -2.79680188 -0.04213637 0 0 Z " fill="#22BEB4" transform="translate(403,182)"/>
<path d="M0 0 C0.33 0 0.66 0 1 0 C1.64687807 2.72892283 2.29253718 5.45812447 2.9375 8.1875 C3.21110352 9.34088867 3.21110352 9.34088867 3.49023438 10.51757812 C4.39120113 14.33440092 5.26637997 18.14656426 6 22 C5.34 22.33 4.68 22.66 4 23 C1.67409146 19.36576791 1.83734167 16.22911669 2 12 C1.34 12 0.68 12 0 12 C-0.19573608 10.56359829 -0.38127816 9.12580496 -0.5625 7.6875 C-0.66691406 6.88699219 -0.77132812 6.08648438 -0.87890625 5.26171875 C-1 3 -1 3 0 0 Z " fill="#EDECE8" transform="translate(519,783)"/>
<path d="M0 0 C0.33 0 0.66 0 1 0 C0.67 3.63 0.34 7.26 0 11 C0.99 11.33 1.98 11.66 3 12 C3 12.66 3 13.32 3 14 C2.360625 14.45375 1.72125 14.9075 1.0625 15.375 C-1.2676157 17.21084873 -1.60401298 18.12909413 -2 21 C-2.99 21 -3.98 21 -5 21 C-4.505 19.515 -4.505 19.515 -4 18 C-2.48666598 13.27083117 -1.66351472 8.86738886 -1.24609375 3.91796875 C-1 2 -1 2 0 0 Z " fill="#22C0B7" transform="translate(498,374)"/>
<path d="M0 0 C0.66 0.33 1.32 0.66 2 1 C0.515 2.485 0.515 2.485 -1 4 C-0.67 4.66 -0.34 5.32 0 6 C-1.32 7.32 -2.64 8.64 -4 10 C-4.66 9.34 -5.32 8.68 -6 8 C-7.98 9.98 -9.96 11.96 -12 14 C-12.66 13.67 -13.32 13.34 -14 13 C-9.51286432 8.4103663 -5.01431776 4.01145421 0 0 Z " fill="#5EE9DE" transform="translate(425,237)"/>
<path d="M0 0 C-0.44469329 5.03985731 -2.71343362 7.37634988 -6 11 C-7.0625 9.125 -7.0625 9.125 -8 7 C-7.67 6.34 -7.34 5.68 -7 5 C-6.34 5 -5.68 5 -5 5 C-5 4.34 -5 3.68 -5 3 C-5.66 2.67 -6.32 2.34 -7 2 C-4.35261084 0.5393715 -3.10551666 0 0 0 Z " fill="#2AC7BE" transform="translate(333,557)"/>
<path d="M0 0 C1.07479473 3.22438418 1.14192642 3.93213797 0 7 C-1.62890625 9.359375 -1.62890625 9.359375 -3.5625 11.75 C-4.52349609 12.94882812 -4.52349609 12.94882812 -5.50390625 14.171875 C-5.99761719 14.77515625 -6.49132812 15.3784375 -7 16 C-7.33 15.34 -7.66 14.68 -8 14 C-6.75717988 11.54961707 -5.47117661 9.226675 -4.0625 6.875 C-3.48338867 5.88693359 -3.48338867 5.88693359 -2.89257812 4.87890625 C-1.93553422 3.248387 -0.96867185 1.62363816 0 0 Z " fill="#09686E" transform="translate(362,473)"/>
<path d="M0 0 C0.66 0.33 1.32 0.66 2 1 C2.73075648 3.3140622 3.40138258 5.64828869 4 8 C5.32 8.33 6.64 8.66 8 9 C8 9.33 8 9.66 8 10 C2.5814234 10.22577402 -1.77487721 9.46670113 -7 8 C-7 7.67 -7 7.34 -7 7 C-4.36 7 -1.72 7 1 7 C0.67 4.69 0.34 2.38 0 0 Z " fill="#57DED4" transform="translate(722,255)"/>
<path d="M0 0 C0.99 0.33 1.98 0.66 3 1 C3 1.33 3 1.66 3 2 C3.33 2.99 3.66 3.98 4 5 C2.5625 7.6875 2.5625 7.6875 1 10 C0.67 9.01 0.34 8.02 0 7 C-2.00016466 5.79117904 -2.00016466 5.79117904 -4 5 C-2.25 1.125 -2.25 1.125 0 0 Z " fill="#56E1D2" transform="translate(505,190)"/>
<path d="M0 0 C1.32 0.66 2.64 1.32 4 2 C4 2.99 4 3.98 4 5 C1 6 1 6 -2 6 C-3.46090788 7.5354878 -3.46090788 7.5354878 -4.6875 9.5 C-5.12449219 10.1496875 -5.56148438 10.799375 -6.01171875 11.46875 C-6.33785156 11.9740625 -6.66398437 12.479375 -7 13 C-7 9.16235973 -5.73464665 7.88513915 -3.5 4.8125 C-2.8503125 3.91144531 -2.200625 3.01039063 -1.53125 2.08203125 C-1.0259375 1.39496094 -0.520625 0.70789063 0 0 Z " fill="#5DE6DB" transform="translate(372,295)"/>
<path d="M0 0 C0.66 0.33 1.32 0.66 2 1 C1.67 1.33 1.34 1.66 1 2 C0.24755499 4.8275989 0.24755499 4.8275989 1 8 C3.45716823 10.07541999 6.13534062 11.55488165 9 13 C7 14 7 14 4.8359375 13.44140625 C4.02382813 13.15136719 3.21171875 12.86132812 2.375 12.5625 C1.55773437 12.27503906 0.74046875 11.98757813 -0.1015625 11.69140625 C-0.72804688 11.46324219 -1.35453125 11.23507812 -2 11 C-2.25 3.375 -2.25 3.375 0 0 Z " fill="#2EDAD0" transform="translate(676,270)"/>
<path d="M0 0 C4.95998472 0.61632946 8.93671966 2.79835629 13.3125 5.0625 C14.05306641 5.43955078 14.79363281 5.81660156 15.55664062 6.20507812 C17.37387522 7.13128157 19.18732404 8.06490629 21 9 C18 10 18 10 15.66015625 9.00390625 C14.80292969 8.52824219 13.94570313 8.05257813 13.0625 7.5625 C9.50761275 5.59471174 8.19571255 5 4 5 C4 4.01 4 3.02 4 2 C2.68 1.34 1.36 0.68 0 0 Z " fill="#3ADBD3" transform="translate(732,266)"/>
<path d="M0 0 C2 1 4 2 6 3 C3.63707344 5.52588702 2.33537489 6.88820837 -1 8 C-1.99 7.01 -2.98 6.02 -4 5 C-2.68 3.35 -1.36 1.7 0 0 Z " fill="#4AD8C8" transform="translate(395,267)"/>
<path d="M0 0 C4.99736731 1.24934183 8.13399671 3.47650435 11.97265625 6.7578125 C14.47193212 8.28916072 16.12017402 8.22958751 19 8 C19 8.66 19 9.32 19 10 C18.34 10 17.68 10 17 10 C16.67 10.66 16.34 11.32 16 12 C13.89311385 10.56635564 11.78949074 9.12829067 9.6875 7.6875 C9.09259766 7.28337891 8.49769531 6.87925781 7.88476562 6.46289062 C5.02390921 4.49705074 2.32453048 2.5930683 0 0 Z " fill="#33D6CF" transform="translate(343,196)"/>
<path d="M0 0 C0.33 0.66 0.66 1.32 1 2 C0.67 2.66 0.34 3.32 0 4 C1.65 3.67 3.3 3.34 5 3 C5 3.99 5 4.98 5 6 C3.8553125 5.9071875 3.8553125 5.9071875 2.6875 5.8125 C-0.04525312 5.74101915 -0.04525312 5.74101915 -1.8125 7.5 C-2.4003125 8.2425 -2.4003125 8.2425 -3 9 C-3.66 7.35 -4.32 5.7 -5 4 C-3.35 2.68 -1.7 1.36 0 0 Z " fill="#21BFB7" transform="translate(296,535)"/>
<path d="M0 0 C-1.32 0.33 -2.64 0.66 -4 1 C-4 1.66 -4 2.32 -4 3 C-4.928125 3.1546875 -4.928125 3.1546875 -5.875 3.3125 C-8.36526484 3.87525373 -8.36526484 3.87525373 -10 7 C-10.33 6.34 -10.66 5.68 -11 5 C-13.01669827 3.86649466 -13.01669827 3.86649466 -15 3 C-9.89665983 1.094753 -5.53657294 -0.42589023 0 0 Z " fill="#31D0C9" transform="translate(366,183)"/>
<path d="M0 0 C0 0.99 0 1.98 0 3 C-6.93 2.34 -13.86 1.68 -21 1 C-21 0.67 -21 0.34 -21 0 C-13.97381022 -1.5056121 -7.10547081 -0.64057643 0 0 Z " fill="#E0E3DF" transform="translate(601,694)"/>
<path d="M0 0 C0 3 0 3 -2.40625 5.69921875 C-3.4299968 6.70302243 -4.4616054 7.69885649 -5.5 8.6875 C-6.02464844 9.19861328 -6.54929687 9.70972656 -7.08984375 10.23632812 C-8.38660904 11.49772708 -9.69246117 12.74977212 -11 14 C-11.33 12.68 -11.66 11.36 -12 10 C-11.13375 9.46375 -10.2675 8.9275 -9.375 8.375 C-5.77876937 5.99463782 -2.97201894 3.11354365 0 0 Z " fill="#0A2A2E" transform="translate(284,531)"/>
<path d="M0 0 C0.66 0.66 1.32 1.32 2 2 C-0.04142394 2.16961386 -2.08315311 2.33555596 -4.125 2.5 C-5.83042969 2.63921875 -5.83042969 2.63921875 -7.5703125 2.78125 C-10.72597149 2.9825221 -13.83921165 3.03842904 -17 3 C-11.79893347 -0.46737769 -6.07778824 -0.30388941 0 0 Z " fill="#05171B" transform="translate(677,312)"/>
<path d="M0 0 C0 2.33333333 0 4.66666667 0 7 C-2.3125 7.625 -2.3125 7.625 -5 8 C-5.99 7.34 -6.98 6.68 -8 6 C-5.36 4.02 -2.72 2.04 0 0 Z " fill="#035F65" transform="translate(485,347)"/>
<path d="M0 0 C0.99 0 1.98 0 3 0 C3.93423645 3.01031744 4.04449911 3.86650268 3 7 C2.01 7 1.02 7 0 7 C-0.33 7.66 -0.66 8.32 -1 9 C-1.125 2.25 -1.125 2.25 0 0 Z " fill="#58DED3" transform="translate(318,416)"/>
<path d="M0 0 C3.3 0.33 6.6 0.66 10 1 C8.68 1.99 7.36 2.98 6 4 C4.95884159 5.30144802 3.94622159 6.62797869 3 8 C3 7.01 3 6.02 3 5 C2.01 4.67 1.02 4.34 0 4 C0 2.66666667 0 1.33333333 0 0 Z " fill="#2ED6CC" transform="translate(737,300)"/>
<path d="M0 0 C0.99 0.33 1.98 0.66 3 1 C3 1.66 3 2.32 3 3 C2.01 3.33 1.02 3.66 0 4 C-0.33 4.66 -0.66 5.32 -1 6 C-1.66 6 -2.32 6 -3 6 C-2.67 7.32 -2.34 8.64 -2 10 C-2.99 9.67 -3.98 9.34 -5 9 C-5.33 9.99 -5.66 10.98 -6 12 C-6.33 11.34 -6.66 10.68 -7 10 C-3.535 5.05 -3.535 5.05 0 0 Z " fill="#03696F" transform="translate(379,446)"/>
<path d="M0 0 C3.48749314 2.78999451 6.50157221 5.25235831 9 9 C8.67 9.66 8.34 10.32 8 11 C7.34 10.34 6.68 9.68 6 9 C5.01 9.495 5.01 9.495 4 10 C3.01 9.34 2.02 8.68 1 8 C1.33 7.34 1.66 6.68 2 6 C2.66 6.33 3.32 6.66 4 7 C3.01 5.824375 3.01 5.824375 2 4.625 C0 2 0 2 0 0 Z " fill="#61E5DC" transform="translate(699,215)"/>
<path d="M0 0 C5.45479185 0.56820748 9.91059256 1.94637945 15 4 C11.58389775 4.94314127 8.54865136 5.08065117 5 5 C5 4.01 5 3.02 5 2 C3.35 1.67 1.7 1.34 0 1 C0 0.67 0 0.34 0 0 Z " fill="#5EE6DD" transform="translate(638,178)"/>
<path d="M0 0 C2.12472576 -0.05386629 4.24983652 -0.09273071 6.375 -0.125 C7.55835938 -0.14820313 8.74171875 -0.17140625 9.9609375 -0.1953125 C13 0 13 0 15 2 C14.67 2.33 14.34 2.66 14 3 C12.20570991 2.96201014 10.41279473 2.84469455 8.625 2.6875 C7.64789063 2.60886719 6.67078125 2.53023437 5.6640625 2.44921875 C3 2 3 2 0 0 Z " fill="#E5E6E2" transform="translate(288,807)"/>
<path d="M0 0 C0.33 0.66 0.66 1.32 1 2 C0.690625 2.5775 0.38125 3.155 0.0625 3.75 C-1.28624463 6.60616511 -1.14182953 8.87975041 -1 12 C-1.99 12 -2.98 12 -4 12 C-4.66 13.32 -5.32 14.64 -6 16 C-4.94513949 9.87903309 -3.34782974 5.24493326 0 0 Z " fill="#63E6DF" transform="translate(338,354)"/>
<path d="M0 0 C3.375 1 3.375 1 6 2 C6 2.66 6 3.32 6 4 C-1.425 3.01 -1.425 3.01 -9 2 C-5.47425575 -0.35049617 -4.15027493 -0.32551176 0 0 Z " fill="#E5E6E2" transform="translate(629,161)"/>
<path d="M0 0 C1.485 0.99 1.485 0.99 3 2 C2.01 2 1.02 2 0 2 C0 1.34 0 0.68 0 0 Z M0 2 C0.33 3.32 0.66 4.64 1 6 C-1 7 -3 8 -5 9 C-5.6875 7.1875 -5.6875 7.1875 -6 5 C-4.04862098 2.26806937 -3.44686768 2 0 2 Z " fill="#4AD7C8" transform="translate(337,364)"/>
<path d="M0 0 C1.98 0.66 3.96 1.32 6 2 C5.01 2.66 4.02 3.32 3 4 C2.67 3.67 2.34 3.34 2 3 C1.67 3.99 1.34 4.98 1 6 C-0.65 5.67 -2.3 5.34 -4 5 C-3.34 3.68 -2.68 2.36 -2 1 C-1.34 1.33 -0.68 1.66 0 2 C0 1.34 0 0.68 0 0 Z " fill="#58E3D5" transform="translate(654,183)"/>
<path d="M0 0 C0 0.99 0 1.98 0 3 C-4.455 3.495 -4.455 3.495 -9 4 C-9.33 3.34 -9.66 2.68 -10 2 C-6.5980513 -0.09350689 -3.94727588 -0.17942163 0 0 Z M-17 3 C-14.69 3 -12.38 3 -10 3 C-10 3.33 -10 3.66 -10 4 C-12.31 4 -14.62 4 -17 4 C-17 3.67 -17 3.34 -17 3 Z " fill="#133439" transform="translate(581,161)"/>
<path d="M0 0 C3.83663072 1.34929464 6.65172569 3.07751025 9.8125 5.625 C10.99779297 6.57246094 10.99779297 6.57246094 12.20703125 7.5390625 C12.79871094 8.02117188 13.39039063 8.50328125 14 9 C13.34 9.66 12.68 10.32 12 11 C10.56145942 9.73034469 9.12420873 8.45922782 7.6875 7.1875 C6.88699219 6.47980469 6.08648438 5.77210938 5.26171875 5.04296875 C3.45016838 3.40662878 1.70318297 1.74727832 0 0 Z " fill="#EAECEA" transform="translate(796,705)"/>
<path d="M0 0 C1.25541557 3.76624671 0.37061958 5.37188934 -1 9 C-3.50037734 6.82575883 -4.43628586 5.26954202 -5 2 C-3.35 1.34 -1.7 0.68 0 0 Z " fill="#4CD7C8" transform="translate(323,516)"/>
<path d="M0 0 C0.33 0.66 0.66 1.32 1 2 C0.00390625 3.9453125 0.00390625 3.9453125 -1.4375 6.125 C-1.91058594 6.84945313 -2.38367188 7.57390625 -2.87109375 8.3203125 C-3.24363281 8.87460937 -3.61617188 9.42890625 -4 10 C-4.99 8.68 -5.98 7.36 -7 6 C-6.34 6 -5.68 6 -5 6 C-5 4.68 -5 3.36 -5 2 C-4.01 2.33 -3.02 2.66 -2 3 C-1.34 2.01 -0.68 1.02 0 0 Z " fill="#2DCBC0" transform="translate(365,465)"/>
<path d="M0 0 C0 3.99897642 -1.35316035 5.06701552 -4 8 C-5.63356951 9.37368345 -7.2925002 10.71937515 -9 12 C-9.66 11.67 -10.32 11.34 -11 11 C-7.37 7.37 -3.74 3.74 0 0 Z " fill="#FAFAF7" transform="translate(815,817)"/>
<path d="M0 0 C0.99 1.32 1.98 2.64 3 4 C1.68 5.32 0.36 6.64 -1 8 C-1.99 7.01 -2.98 6.02 -4 5 C-2.68 3.35 -1.36 1.7 0 0 Z " fill="#2BCEC6" transform="translate(312,520)"/>
<path d="M0 0 C-0.33 3.3 -0.66 6.6 -1 10 C-1.33 10 -1.66 10 -2 10 C-2.33 7.69 -2.66 5.38 -3 3 C-4.65 3.66 -6.3 4.32 -8 5 C-3.16129032 0 -3.16129032 0 0 0 Z " fill="#030D11" transform="translate(502,333)"/>
<path d="M0 0 C0.33 0 0.66 0 1 0 C1 2.97 1 5.94 1 9 C0.34 8.34 -0.32 7.68 -1 7 C-2.175625 6.835 -3.35125 6.67 -4.5625 6.5 C-5.696875 6.335 -6.83125 6.17 -8 6 C-8.33 5.34 -8.66 4.68 -9 4 C-6.03 4 -3.06 4 0 4 C0 2.68 0 1.36 0 0 Z " fill="#29BEB7" transform="translate(627,249)"/>
<path d="M0 0 C2.97 0.495 2.97 0.495 6 1 C5.34 2.98 4.68 4.96 4 7 C2 6 2 6 1 4 C0.34 3.67 -0.32 3.34 -1 3 C-0.67 2.01 -0.34 1.02 0 0 Z " fill="#21BEB5" transform="translate(302,528)"/>
<path d="M0 0 C0.33 0.99 0.66 1.98 1 3 C1.66 3.33 2.32 3.66 3 4 C1.35 4.33 -0.3 4.66 -2 5 C-2 7.64 -2 10.28 -2 13 C-2.33 13 -2.66 13 -3 13 C-3.08121924 11.39667209 -3.13929134 9.79215974 -3.1875 8.1875 C-3.22230469 7.29417969 -3.25710938 6.40085937 -3.29296875 5.48046875 C-2.95081002 2.58352485 -2.24606427 1.77444972 0 0 Z " fill="#4DC6BA" transform="translate(316,483)"/>
<path d="M0 0 C-0.66 0 -1.32 0 -2 0 C-2 0.66 -2 1.32 -2 2 C-5.3 2.66 -8.6 3.32 -12 4 C-8.29303159 0.29303159 -5.18092636 -1.72697545 0 0 Z " fill="#03171C" transform="translate(601,332)"/>
<path d="M0 0 C0.33 0.99 0.66 1.98 1 3 C-1.25 5.0625 -1.25 5.0625 -4 7 C-5.32 6.67 -6.64 6.34 -8 6 C-5.36 4.02 -2.72 2.04 0 0 Z " fill="#5AE3D9" transform="translate(450,218)"/>
<path d="M0 0 C1.65 0 3.3 0 5 0 C5 0.66 5 1.32 5 2 C6.65 1.34 8.3 0.68 10 0 C7.6875 2.5 7.6875 2.5 5 5 C4.01 5 3.02 5 2 5 C2.33 4.34 2.66 3.68 3 3 C2.01 2.01 1.02 1.02 0 0 Z " fill="#30D3CB" transform="translate(422,217)"/>
<path d="M0 0 C0.77085937 0.2165625 1.54171875 0.433125 2.3359375 0.65625 C3.84027344 1.07390625 3.84027344 1.07390625 5.375 1.5 C6.37273437 1.7784375 7.37046875 2.056875 8.3984375 2.34375 C10.87603276 3.08153015 10.87603276 3.08153015 13 3 C12.67 3.99 12.34 4.98 12 6 C7.38 4.68 2.76 3.36 -2 2 C-1.34 1.34 -0.68 0.68 0 0 Z " fill="#EEEEEB" transform="translate(440,178)"/>
<path d="M0 0 C0.66 0 1.32 0 2 0 C1.719172 1.98073365 1.42503386 3.95958448 1.125 5.9375 C0.88136719 7.59072266 0.88136719 7.59072266 0.6328125 9.27734375 C0.42398437 10.17582031 0.21515625 11.07429687 0 12 C-0.99 12.495 -0.99 12.495 -2 13 C-2 10.69 -2 8.38 -2 6 C-1.34 6 -0.68 6 0 6 C-0.2784375 4.7934375 -0.2784375 4.7934375 -0.5625 3.5625 C-0.706875 2.716875 -0.85125 1.87125 -1 1 C-0.67 0.67 -0.34 0.34 0 0 Z " fill="#1DBAB0" transform="translate(337,520)"/>
<path d="M0 0 C-1.29299694 2.88437779 -2.65941363 4.87219421 -5 7 C-5.66 6.67 -6.32 6.34 -7 6 C-6.67 4.35 -6.34 2.7 -6 1 C-3.92446352 0.4465236 -2.15634036 0 0 0 Z " fill="#29D0C8" transform="translate(521,403)"/>
<path d="M0 0 C0.33 0 0.66 0 1 0 C1 2.64 1 5.28 1 8 C0.34 8 -0.32 8 -1 8 C-1.33 9.98 -1.66 11.96 -2 14 C-3.25127906 10.45332822 -2.72285053 8.27746562 -1.5625 4.75 C-1.27503906 3.85796875 -0.98757813 2.9659375 -0.69140625 2.046875 C-0.46324219 1.37140625 -0.23507812 0.6959375 0 0 Z " fill="#06171C" transform="translate(564,328)"/>
<path d="M0 0 C0 0.66 0 1.32 0 2 C-0.99 2 -1.98 2 -3 2 C-3.33 2.99 -3.66 3.98 -4 5 C-6.31 5 -8.62 5 -11 5 C-8.19602214 1.57291595 -4.43232801 0 0 0 Z " fill="#0C181A" transform="translate(276,648)"/>
<path d="M0 0 C2.125 0.9375 2.125 0.9375 4 2 C2.35 3.32 0.7 4.64 -1 6 C-1 5.34 -1 4.68 -1 4 C-1.66 4 -2.32 4 -3 4 C-2.67 3.01 -2.34 2.02 -2 1 C-1.34 0.67 -0.68 0.34 0 0 Z " fill="#2ECFC6" transform="translate(412,229)"/>
<path d="M0 0 C0 0.66 0 1.32 0 2 C-5.35714286 7 -5.35714286 7 -9 7 C-9 6.34 -9 5.68 -9 5 C-7.5390625 3.7109375 -7.5390625 3.7109375 -5.625 2.375 C-4.99851562 1.92898438 -4.37203125 1.48296875 -3.7265625 1.0234375 C-2 0 -2 0 0 0 Z " fill="#046167" transform="translate(471,358)"/>
<path d="M0 0 C-0.75 6.625 -0.75 6.625 -3 10 C-3.33 7.03 -3.66 4.06 -4 1 C-2 0 -2 0 0 0 Z " fill="#E9EAE7" transform="translate(635,332)"/>
<path d="M0 0 C0.66 0 1.32 0 2 0 C2.33 1.65 2.66 3.3 3 5 C1.02 5 -0.96 5 -3 5 C-1.125 1.125 -1.125 1.125 0 0 Z " fill="#2BD3C9" transform="translate(654,260)"/>
<path d="M0 0 C-1.98 0.99 -1.98 0.99 -4 2 C-3.34 2.33 -2.68 2.66 -2 3 C-2.33 3.66 -2.66 4.32 -3 5 C-4.32 4.67 -5.64 4.34 -7 4 C-7 2.68 -7 1.36 -7 0 C-3.86650268 -1.04449911 -3.01031744 -0.93423645 0 0 Z " fill="#5AE1D6" transform="translate(535,182)"/>
<path d="M0 0 C0 0.99 0 1.98 0 3 C-4.625 5.125 -4.625 5.125 -8 4 C-8 3.34 -8 2.68 -8 2 C-2.25 0 -2.25 0 0 0 Z " fill="#EEECE7" transform="translate(608,841)"/>
<path d="M0 0 C2.64 0 5.28 0 8 0 C5.47043472 3.0916909 2.77545388 3.90931332 -1 5 C-0.67 3.35 -0.34 1.7 0 0 Z " fill="#30D2CA" transform="translate(281,589)"/>
<path d="M0 0 C1.98 0.495 1.98 0.495 4 1 C2.63016497 4.16115776 2.0109362 4.9927092 -1 7 C-1 3 -1 3 0 0 Z " fill="#0C797E" transform="translate(370,462)"/>
<path d="M0 0 C1.9955516 3.99110319 2.19546065 5.69986566 2 10 C1.01 10 0.02 10 -1 10 C-0.67 6.7 -0.34 3.4 0 0 Z " fill="#EFEEEA" transform="translate(634,366)"/>
<path d="M0 0 C0.99 0.99 1.98 1.98 3 3 C-0.3 3 -3.6 3 -7 3 C-7.33 2.34 -7.66 1.68 -8 1 C-5.20129973 -0.39935013 -3.09501208 -0.25265405 0 0 Z " fill="#22BDB3" transform="translate(638,316)"/>
<path d="M0 0 C2.31 0.33 4.62 0.66 7 1 C7 1.66 7 2.32 7 3 C7.99 3.33 8.98 3.66 10 4 C9.67 4.66 9.34 5.32 9 6 C6.03 4.35 3.06 2.7 0 1 C0 0.67 0 0.34 0 0 Z " fill="#E2E4E2" transform="translate(756,264)"/>
<path d="M0 0 C2.64 0 5.28 0 8 0 C6.6875 2.5 6.6875 2.5 5 5 C4.01 5 3.02 5 2 5 C2 4.01 2 3.02 2 2 C1.34 2 0.68 2 0 2 C0 1.34 0 0.68 0 0 Z " fill="#44D7C5" transform="translate(578,173)"/>
<path d="M0 0 C0 0.66 0 1.32 0 2 C0.66 2 1.32 2 2 2 C2 2.66 2 3.32 2 4 C2.99 4 3.98 4 5 4 C5 4.66 5 5.32 5 6 C2.0625 5.625 2.0625 5.625 -1 5 C-1.33 4.34 -1.66 3.68 -2 3 C-2.99 2.34 -3.98 1.68 -5 1 C-2 0 -2 0 0 0 Z " fill="#E9E8E1" transform="translate(418,169)"/>
<path d="M0 0 C1.85625 -0.061875 1.85625 -0.061875 3.75 -0.125 C4.79414063 -0.15980469 4.79414063 -0.15980469 5.859375 -0.1953125 C8 0 8 0 12 2 C6.06 2.495 6.06 2.495 0 3 C0 2.01 0 1.02 0 0 Z " fill="#EDEEEA" transform="translate(366,168)"/>
<path d="M0 0 C1.32 0.66 2.64 1.32 4 2 C2 5 2 5 -0.125 5.6875 C-0.74375 5.790625 -1.3625 5.89375 -2 6 C-1.49396008 3.83125748 -1.00016187 2.00032373 0 0 Z " fill="#169999" transform="translate(349,523)"/>
<path d="M0 0 C0.33 0.66 0.66 1.32 1 2 C2.65 1.67 4.3 1.34 6 1 C4.68 2.32 3.36 3.64 2 5 C0.68 4.34 -0.64 3.68 -2 3 C-1.34 2.01 -0.68 1.02 0 0 Z " fill="#2BCFC5" transform="translate(505,412)"/>
<path d="M0 0 C1.32 0.33 2.64 0.66 4 1 C4.33 2.65 4.66 4.3 5 6 C2.69 5.34 0.38 4.68 -2 4 C-1.34 2.68 -0.68 1.36 0 0 Z " fill="#2DD9CF" transform="translate(682,265)"/>
<path d="M0 0 C1.32 0.66 2.64 1.32 4 2 C2.33333333 3.66666667 0.66666667 5.33333333 -1 7 C-2 4 -2 4 -1.0625 1.8125 C-0.5365625 0.9153125 -0.5365625 0.9153125 0 0 Z " fill="#4BD6C8" transform="translate(631,236)"/>
<path d="M0 0 C0.66 0.66 1.32 1.32 2 2 C1.625 5.625 1.625 5.625 1 9 C0.34 8.67 -0.32 8.34 -1 8 C-0.67 5.36 -0.34 2.72 0 0 Z " fill="#071C1F" transform="translate(827,783)"/>
<path d="M0 0 C0.66 0 1.32 0 2 0 C2 0.99 2 1.98 2 3 C2.66 3 3.32 3 4 3 C4 4.65 4 6.3 4 8 C3.01 8.495 3.01 8.495 2 9 C1.34 6.03 0.68 3.06 0 0 Z " fill="#ECEBE8" transform="translate(402,709)"/>
<path d="M0 0 C0.66 0.33 1.32 0.66 2 1 C0.51322983 3.30449377 -0.45365799 4.76097537 -3 5.875 C-5 6 -5 6 -8 4 C-6.576875 3.566875 -6.576875 3.566875 -5.125 3.125 C-1.94788422 2.23174891 -1.94788422 2.23174891 0 0 Z " fill="#DEE1DD" transform="translate(262,627)"/>
<path d="M0 0 C0.33 0 0.66 0 1 0 C1.33 2.64 1.66 5.28 2 8 C1.67 8 1.34 8 1 8 C0.67 9.65 0.34 11.3 0 13 C-0.33 13 -0.66 13 -1 13 C-1.07654536 8.48382401 -1.10228696 4.40914783 0 0 Z " fill="#45D6C5" transform="translate(317,429)"/>
<path d="M0 0 C0.66 0.33 1.32 0.66 2 1 C-1.32307692 5.8 -1.32307692 5.8 -4.75 6.8125 C-5.4925 6.874375 -6.235 6.93625 -7 7 C-4.66666667 4.66666667 -2.33333333 2.33333333 0 0 Z " fill="#051317" transform="translate(516,409)"/>
<path d="M0 0 C-2.97 2.475 -2.97 2.475 -6 5 C-6.66 4.67 -7.32 4.34 -8 4 C-7.67 2.68 -7.34 1.36 -7 0 C-2.25 -1.125 -2.25 -1.125 0 0 Z " fill="#2BCAC1" transform="translate(448,375)"/>
<path d="M0 0 C2 0 4 0 6 0 C5.67 1.32 5.34 2.64 5 4 C3.35 4 1.7 4 0 4 C0 2.68 0 1.36 0 0 Z " fill="#2ACEC5" transform="translate(553,344)"/>
<path d="M0 0 C2.125 0.9375 2.125 0.9375 4 2 C2.02 2.66 0.04 3.32 -2 4 C-2 3.01 -2 2.02 -2 1 C-1.34 0.67 -0.68 0.34 0 0 Z M-5 3 C-3 4 -3 4 -3 4 Z " fill="#EBEAE4" transform="translate(577,731)"/>
<path d="M0 0 C0.99 1.485 0.99 1.485 2 3 C2.66 3.33 3.32 3.66 4 4 C3.03114628 5.68496298 2.03013277 7.35178756 1 9 C0.67 9 0.34 9 0 9 C0 6.03 0 3.06 0 0 Z " fill="#E9ECE9" transform="translate(462,715)"/>
<path d="M0 0 C1.65 0.33 3.3 0.66 5 1 C3.35 2.65 1.7 4.3 0 6 C-1.125 2.25 -1.125 2.25 0 0 Z " fill="#0C7F82" transform="translate(383,447)"/>
<path d="M0 0 C0.99 0.66 1.98 1.32 3 2 C-0.465 4.97 -0.465 4.97 -4 8 C-2.87548273 5.0280615 -1.77706209 2.66559313 0 0 Z " fill="#0E8286" transform="translate(392,440)"/>
<path d="M0 0 C0.99 0.33 1.98 0.66 3 1 C2.34 2.65 1.68 4.3 1 6 C-0.32 5.01 -1.64 4.02 -3 3 C-2.01 2.01 -1.02 1.02 0 0 Z " fill="#037174" transform="translate(399,421)"/>
<path d="M0 0 C1.32 0 2.64 0 4 0 C3.625 2.4375 3.625 2.4375 3 5 C2.01 5.495 2.01 5.495 1 6 C0.67 4.02 0.34 2.04 0 0 Z " fill="#28BEB6" transform="translate(520,399)"/>
<path d="M0 0 C3.125 0.375 3.125 0.375 6 1 C6 1.66 6 2.32 6 3 C3.36 2.67 0.72 2.34 -2 2 C-1.34 1.34 -0.68 0.68 0 0 Z " fill="#051A1D" transform="translate(626,172)"/>
</svg>
